<svg width="16" height="17" viewBox="0 0 16 17" fill="none" xmlns="http://www.w3.org/2000/svg">
<path d="M3.63083 4.3398C3.83219 4.13844 4.14824 4.12166 4.36872 4.28946L4.42632 4.3398L12.3813 12.2948C12.6009 12.5144 12.6009 12.8706 12.3813 13.0902C12.1799 13.2916 11.8639 13.3084 11.6434 13.1406L11.5858 13.0902L3.63083 5.1353C3.41116 4.91563 3.41116 4.55947 3.63083 4.3398Z" />
<path d="M11.4076 6.29046C11.4069 5.9798 11.6582 5.72742 11.9689 5.72675C12.2513 5.72614 12.4855 5.93377 12.5263 6.20493L12.5326 6.28804L12.5464 12.6912C12.547 12.9745 12.3381 13.2092 12.0661 13.249L11.9827 13.255L5.57895 13.2417C5.26829 13.2411 5.01698 12.9887 5.01762 12.678C5.0182 12.3956 5.22682 12.1622 5.49815 12.1226L5.58128 12.1167L11.4202 12.1285L11.4076 6.29046Z" />
</svg>
