<svg width="42" height="47" viewBox="0 0 42 47" fill="none" xmlns="http://www.w3.org/2000/svg">
<path d="M3.00006 30C4.60026 33.4817 7.09503 36.4768 10.2301 38.68L20.6001 46L31.0001 38.71C33.8562 36.7028 36.1869 34.0374 37.7953 30.9391C39.4036 27.8409 40.2421 24.4008 40.2401 20.91V6.08C33.3823 5.97458 26.6489 4.23294 20.6001 1C14.5631 4.22642 7.8442 5.96785 1.00006 6.08V16.24C1.00006 18.9346 2.07049 21.5188 3.97586 23.4242C5.88123 25.3296 8.46546 26.4 11.1601 26.4H17.0001V33.66H24.2601V26.4H31.5101V23.5" stroke="#2D9CDB" stroke-width="2" stroke-linecap="round" stroke-linejoin="round"/>
<path d="M31.4801 19.14H24.2301V11.89H16.9701V19.14H9.71005V22.05" stroke="#EE222A" stroke-width="2" stroke-linecap="round" stroke-linejoin="round"/>
</svg>
