<svg width="46" height="48" viewBox="0 0 46 48" fill="none" xmlns="http://www.w3.org/2000/svg">
<path d="M10.9958 14.061V12.611C10.9702 11.0827 11.2517 9.56479 11.8236 8.14728C12.3955 6.72977 13.2462 5.44148 14.3251 4.35879C15.4041 3.27609 16.6894 2.42101 18.105 1.84423C19.5205 1.26746 21.0374 0.980716 22.5658 1.00101C29.1658 1.00101 34.8958 6.08101 34.8958 12.611V14.061" stroke="#2D9CDB" stroke-width="2" stroke-linecap="round" stroke-linejoin="round"/>
<path d="M18.2058 29.311C15.2658 27.361 13.8558 22.991 13.8558 19.511V17.001" stroke="#2D9CDB" stroke-width="2" stroke-linecap="round" stroke-linejoin="round"/>
<path d="M31.9958 17.001V19.541C31.9958 23.291 30.3558 27.351 26.9158 29.131" stroke="#2D9CDB" stroke-width="2" stroke-linecap="round" stroke-linejoin="round"/>
<path d="M14.5758 12.611C24.1558 12.611 26.1858 10.441 27.6458 8.26099C27.6458 8.26099 27.6458 12.611 31.2758 12.611" stroke="#2D9CDB" stroke-width="2" stroke-linecap="round" stroke-linejoin="round"/>
<path d="M16.7558 28.5811V31.4811" stroke="#2D9CDB" stroke-width="2" stroke-linecap="round" stroke-linejoin="round"/>
<path d="M28.3658 28.5811V31.4811" stroke="#2D9CDB" stroke-width="2" stroke-linecap="round" stroke-linejoin="round"/>
<path d="M44.0658 46.001C44.0658 46.001 45.0658 39.471 39.2558 36.561L31.9958 32.941" stroke="#2D9CDB" stroke-width="2" stroke-linecap="round" stroke-linejoin="round"/>
<path d="M1.06581 46.001C1.06581 46.001 0.0658069 39.471 5.86581 36.561L13.1258 32.941" stroke="#2D9CDB" stroke-width="2" stroke-linecap="round" stroke-linejoin="round"/>
<path d="M13.1258 32.941L11.6758 41.651C15.2878 40.6226 18.3908 38.2927 20.3858 35.111C19.5206 34.8673 18.7325 34.4055 18.0969 33.7699C17.4613 33.1343 16.9995 32.3462 16.7558 31.481" stroke="#2D9CDB" stroke-width="2" stroke-linecap="round" stroke-linejoin="round"/>
<path d="M31.9958 32.941L33.4458 41.651C29.8338 40.6226 26.7309 38.2927 24.7358 35.111C25.601 34.8673 26.3892 34.4055 27.0248 33.7699C27.6603 33.1343 28.1221 32.3462 28.3658 31.481" stroke="#2D9CDB" stroke-width="2" stroke-linecap="round" stroke-linejoin="round"/>
<path d="M19.4758 46.001C20.1158 43.171 21.1058 40.191 21.1058 40.191C18.9358 38.021 20.3858 35.111 20.3858 35.111C21.8049 35.5342 23.3167 35.5342 24.7358 35.111C24.7358 35.111 26.1858 38.001 23.9958 40.191C23.9958 40.191 24.9958 43.191 25.6258 46.001" stroke="#2D9CDB" stroke-width="2" stroke-linecap="round" stroke-linejoin="round"/>
<path d="M10.9958 22.771C10.541 22.8064 10.0838 22.7491 9.65175 22.6026C9.21975 22.456 8.822 22.2233 8.4826 21.9185C8.1432 21.6137 7.86921 21.2432 7.67725 20.8293C7.48528 20.4155 7.37933 19.967 7.36581 19.511V17.331C7.378 16.8742 7.48297 16.4246 7.67435 16.0096C7.86573 15.5946 8.13952 15.2229 8.47906 14.917C8.81861 14.6112 9.21681 14.3775 9.64947 14.2304C10.0821 14.0832 10.5402 14.0256 10.9958 14.061" stroke="#2D9CDB" stroke-width="2" stroke-linecap="round" stroke-linejoin="round"/>
<path d="M34.8958 14.061C35.3517 14.0241 35.8104 14.0807 36.2437 14.2273C36.677 14.3739 37.0757 14.6075 37.4156 14.9136C37.7555 15.2198 38.0292 15.5921 38.2201 16.0077C38.411 16.4234 38.515 16.8737 38.5258 17.331V19.511C38.5137 19.9674 38.4087 20.4166 38.2172 20.8311C38.0257 21.2456 37.7518 21.6167 37.412 21.9218C37.0723 22.2269 36.674 22.4595 36.2414 22.6055C35.8088 22.7515 35.3509 22.8078 34.8958 22.771" stroke="#2D9CDB" stroke-width="2" stroke-linecap="round" stroke-linejoin="round"/>
<path d="M24.7358 26.401H21.1058C20.7305 26.3988 20.3705 26.2521 20.1005 25.9914C19.8305 25.7307 19.6712 25.376 19.6558 25.001V25.001C19.6584 24.6173 19.8121 24.25 20.0834 23.9786C20.3548 23.7073 20.7221 23.5536 21.1058 23.551H24.7358C25.1204 23.551 25.4892 23.7038 25.7611 23.9757C26.0331 24.2476 26.1858 24.6165 26.1858 25.001V25.001C26.1729 25.3769 26.0144 25.733 25.7438 25.9942C25.4733 26.2554 25.1119 26.4012 24.7358 26.401V26.401Z" stroke="#EE222A" stroke-width="2" stroke-linecap="round" stroke-linejoin="round"/>
<path d="M18.9358 25.001H15.3058C14.542 25.003 13.7913 24.8034 13.1293 24.4224C12.4674 24.0414 11.9177 23.4924 11.5358 22.831C11.1613 22.1486 10.9749 21.379 10.9958 20.601" stroke="#EE222A" stroke-width="2" stroke-linecap="round" stroke-linejoin="round"/>
</svg>
