<svg width="48" height="48" viewBox="0 0 48 48" fill="none" xmlns="http://www.w3.org/2000/svg">
<path d="M9.09867 28.2533H36.0658C36.8178 28.2533 37.5391 27.9546 38.0708 27.4228C38.6026 26.891 38.9013 26.1698 38.9013 25.4178V4.83556C38.9013 4.08352 38.6026 3.36228 38.0708 2.83052C37.5391 2.29875 36.8178 2 36.0658 2H4.83556C4.08352 2 3.36228 2.29875 2.83052 2.83052C2.29875 3.36228 2 4.08352 2 4.83556V37.5324L11.9342 28.2533" stroke="#2D9CDB" stroke-width="2" stroke-linecap="round" stroke-linejoin="round"/>
<path d="M43.1642 17.6445H43.8682C44.4292 17.6419 44.9685 17.8616 45.368 18.2555C45.7674 18.6495 45.9946 19.1857 45.9998 19.7467V46L38.1775 38.9014H16.9011C16.3358 38.9014 15.7936 38.6768 15.3938 38.277C14.9941 37.8773 14.7695 37.3351 14.7695 36.7698V32.5165" stroke="#2D9CDB" stroke-width="2" stroke-linecap="round" stroke-linejoin="round"/>
<path d="M40.319 38.9013H38.1973" stroke="#2D9CDB" stroke-width="2" stroke-linecap="round" stroke-linejoin="round"/>
<path d="M14.6045 22.6409H24.7245C25.2963 22.6392 25.851 22.4455 26.2996 22.0909C26.7482 21.7363 27.0647 21.2413 27.1983 20.6853L28.8019 14.2906C28.8062 14.2157 28.8062 14.1406 28.8019 14.0657C28.8031 13.9442 28.7803 13.8237 28.7347 13.711C28.6891 13.5984 28.6216 13.4959 28.5361 13.4095C28.4507 13.3231 28.3489 13.2545 28.2367 13.2077C28.1246 13.1609 28.0043 13.1369 27.8827 13.1369H21.713V7.62219C21.713 7.54303 21.6972 7.46467 21.6666 7.39166C21.6361 7.31865 21.5912 7.25246 21.5348 7.19695C21.4784 7.14143 21.4115 7.0977 21.338 7.06831C21.2645 7.03892 21.1859 7.02445 21.1067 7.02575C20.9901 7.0259 20.8761 7.06025 20.7787 7.12455C20.6814 7.18886 20.6051 7.28028 20.5592 7.38752L16.5601 15.5226H12.2285" stroke="#EE222A" stroke-width="2" stroke-linecap="round" stroke-linejoin="round"/>
</svg>
