<svg width="43" height="48" viewBox="0 0 43 48" fill="none" xmlns="http://www.w3.org/2000/svg">
<path d="M12.648 4.7311L6.32221 17.482C6.17526 17.7774 6.09334 18.1008 6.08194 18.4304C6.07055 18.7601 6.12994 19.0883 6.25615 19.3932L17.0122 45.3705C17.2472 45.9374 17.6981 46.388 18.2659 46.6232C18.8336 46.8584 19.4716 46.859 20.0398 46.6248L29.9497 42.5347L39.8595 38.4446C40.1409 38.3285 40.3966 38.1581 40.6121 37.9433C40.8275 37.7285 40.9985 37.4734 41.1151 37.1927C41.2318 36.9119 41.292 36.611 41.2921 36.307C41.2923 36.003 41.2325 35.702 41.1161 35.4212L30.3702 9.44387C30.2439 9.13917 30.0539 8.86489 29.8129 8.63939C29.5719 8.4139 29.2854 8.24238 28.9727 8.13632L15.4723 3.57067C14.9406 3.38975 14.3612 3.40768 13.8417 3.62111C13.3223 3.83455 12.8981 4.22898 12.648 4.7311V4.7311Z" stroke="#2D9CDB" stroke-width="2" stroke-linecap="round" stroke-linejoin="round"/>
<path d="M19.6966 10.6563C19.4913 10.1604 19.1433 9.73651 18.6966 9.4381C18.2499 9.13969 17.7247 8.98019 17.1872 8.97977C16.6497 8.97935 16.1242 9.13803 15.6771 9.43574C15.2299 9.73346 14.8813 10.1568 14.6752 10.6523C14.4691 11.1478 14.4148 11.6932 14.5192 12.2195C14.6237 12.7458 14.8821 13.2294 15.2618 13.6091C15.6415 13.9888 16.1255 14.2476 16.6525 14.3527C17.1796 14.4578 17.726 14.4046 18.2228 14.1997C18.5527 14.0637 18.8524 13.8641 19.105 13.6124C19.3576 13.3607 19.5581 13.0618 19.6949 12.7327C19.8318 12.4037 19.9024 12.0509 19.9027 11.6946C19.9029 11.3384 19.8329 10.9855 19.6966 10.6563V10.6563Z" stroke="#EE222A" stroke-width="2" stroke-linecap="round" stroke-linejoin="round"/>
<path d="M6.84551 10.7717L2.38479 15.4743C2.17571 15.6948 2.0162 15.9573 1.91694 16.2442C1.81769 16.5312 1.78097 16.836 1.80925 17.1383L4.2359 42.8835C4.26204 43.1618 4.34285 43.4322 4.47373 43.6794C4.6046 43.9265 4.78297 44.1455 4.99864 44.3238C5.21432 44.5021 5.46307 44.6363 5.73069 44.7186C5.99832 44.8009 6.27957 44.8298 6.55837 44.8036L13.0684 44.1923" stroke="#2D9CDB" stroke-width="2" stroke-linecap="round" stroke-linejoin="round"/>
<path d="M16.7705 10.3798C13.9081 5.65814 6.54936 -0.981072 4.38952 1.90036C2.80393 4.00563 5.40002 6.60001 8.4 8.40001" stroke="#EE222A" stroke-width="2" stroke-linecap="round" stroke-linejoin="round"/>
<path d="M21.5172 19.7991L24.7519 22.6336C24.8682 22.7356 25.0077 22.8079 25.1582 22.8441C25.3087 22.8803 25.4658 22.8795 25.6159 22.8416L29.7882 21.7889C29.9611 21.7454 30.1428 21.7511 30.3128 21.8052C30.4827 21.8593 30.634 21.9598 30.7498 22.0952C30.8655 22.2307 30.9411 22.3957 30.9678 22.5718C30.9945 22.7478 30.9715 22.9278 30.9012 23.0914L29.2 27.0369C29.1381 27.1792 29.112 27.3345 29.1239 27.4893C29.1359 27.644 29.1855 27.7934 29.2686 27.9246L31.5555 31.5607C31.6507 31.7113 31.7017 31.8856 31.7028 32.0637C31.7039 32.2419 31.655 32.4167 31.5616 32.5686C31.4683 32.7204 31.3342 32.843 31.1746 32.9227C31.0149 33.0023 30.8362 33.0357 30.6585 33.0192L26.3731 32.6235C26.2187 32.6092 26.0632 32.6327 25.92 32.6919C25.7767 32.7511 25.6501 32.8443 25.5511 32.9634L22.7954 36.2608C22.681 36.3973 22.5308 36.4992 22.3615 36.5551C22.1922 36.6109 22.0107 36.6184 21.8373 36.5767C21.664 36.535 21.5058 36.4459 21.3806 36.3192C21.2553 36.1926 21.168 36.0335 21.1285 35.86L20.182 31.6748C20.1477 31.5238 20.0772 31.3834 19.9765 31.2656C19.8758 31.1479 19.7479 31.0563 19.6039 30.9989L15.6094 29.4021C15.4441 29.3354 15.3009 29.2239 15.1958 29.0801C15.0907 28.9364 15.028 28.7661 15.0148 28.5887C15.0015 28.4112 15.0383 28.2336 15.121 28.0759C15.2036 27.9182 15.3288 27.7867 15.4824 27.6964L19.1821 25.5023C19.3158 25.4228 19.4282 25.3119 19.5094 25.1794C19.5906 25.0468 19.6383 24.8965 19.6483 24.7414L19.9342 20.456C19.946 20.2785 20.0072 20.1077 20.111 19.9631C20.2148 19.8184 20.357 19.7056 20.5216 19.6373C20.6861 19.569 20.8666 19.5479 21.0425 19.5765C21.2184 19.6051 21.3829 19.6822 21.5172 19.7991V19.7991Z" stroke="#2D9CDB" stroke-width="2" stroke-linecap="round" stroke-linejoin="round"/>
</svg>
