<svg width="14" height="12" viewBox="0 0 14 12" fill="none" xmlns="http://www.w3.org/2000/svg">
<path d="M13.0741 0.0976867L0.526961 4.91194C-0.15859 5.11313 -0.136729 5.79822 0.370438 5.96484L3.51575 6.95924L4.71896 10.6967C4.86499 11.1052 4.98129 11.2595 5.234 11.263C5.48671 11.2665 5.59689 11.1744 5.86971 10.9253C6.18887 10.6213 6.67418 10.1436 7.44368 9.38675L10.7132 11.8355C11.3148 12.1714 11.7485 11.9977 11.8989 11.2692L13.9485 0.988395C14.168 0.0994592 13.6495 -0.16731 13.0741 0.0976867ZM4.0098 6.73058L11.1556 2.18664C11.5054 1.94735 11.6182 2.21411 11.459 2.39846L5.52781 7.80475L5.22351 10.5035L4.0098 6.73058Z" fill="white"/>
</svg>
