<svg width="17" height="10" viewBox="0 0 17 10" fill="none" xmlns="http://www.w3.org/2000/svg">
<path fill-rule="evenodd" clip-rule="evenodd" d="M8.31876 9.95544H9.33497C9.33497 9.95544 9.64206 9.92069 9.79826 9.74601C9.94293 9.58687 9.93849 9.28872 9.93849 9.28872C9.93849 9.28872 9.91808 7.88304 10.5509 7.67635C11.1837 7.46965 11.9762 9.03447 12.8256 9.63534C13.4673 10.0926 13.9554 9.9902 13.9554 9.9902L16.2257 9.95727C16.2257 9.95727 17.4132 9.88136 16.847 8.91924C16.8008 8.84059 16.5186 8.20771 15.1607 6.9072C13.7406 5.54632 13.9279 5.76582 15.6435 3.41081C16.6854 1.97311 17.1061 1.0997 16.9757 0.722904C16.8514 0.368053 16.0828 0.459509 16.0828 0.459509L13.5267 0.475971C13.4133 0.462129 13.2985 0.483128 13.1966 0.536333C13.0994 0.609343 13.0219 0.706583 12.9712 0.818933C12.7064 1.52689 12.3908 2.2135 12.0268 2.87305C10.8881 4.86497 10.4293 4.97015 10.2518 4.84668C9.81867 4.55768 9.92695 3.68793 9.92695 3.07059C9.92695 1.13995 10.211 0.335128 9.37314 0.126607C9.0909 0.0571005 8.88677 0.0122868 8.17587 0.00222656C7.26349 -0.00691909 6.48957 0.00222657 6.05468 0.226295C5.76357 0.374455 5.53903 0.701869 5.68015 0.721075C5.84966 0.743939 6.23219 0.827165 6.43454 1.11159C6.7008 1.47742 6.68749 2.30053 6.68749 2.30053C6.68749 2.30053 6.83393 4.57505 6.33159 4.85857C5.98723 5.05154 5.51418 4.65645 4.49974 2.84652C4.15517 2.21862 3.85012 1.56855 3.58648 0.90033C3.53877 0.786385 3.46545 0.68576 3.37258 0.606754C3.25397 0.525288 3.1205 0.469586 2.9803 0.443047L0.553807 0.459509C0.553807 0.459509 0.189035 0.470484 0.055906 0.634191C-0.0639098 0.779607 0.0461432 1.07958 0.0461432 1.07958C0.0461432 1.07958 1.95255 5.66522 4.10124 7.97541C6.07598 10.0945 8.31876 9.95544 8.31876 9.95544Z" fill="white"/>
</svg>
