<svg width="46" height="45" viewBox="0 0 46 45" fill="none" xmlns="http://www.w3.org/2000/svg">
<path d="M34.563 31.4668L43.3643 40.2772C43.567 40.4795 43.7279 40.7197 43.8377 40.9843C43.9474 41.2488 44.0039 41.5324 44.0039 41.8188C44.0039 42.1052 43.9474 42.3888 43.8377 42.6533C43.7279 42.9178 43.567 43.1581 43.3643 43.3604C43.162 43.5631 42.9217 43.724 42.6572 43.8338C42.3927 43.9435 42.1091 44 41.8227 44C41.5363 44 41.2527 43.9435 40.9882 43.8338C40.7236 43.724 40.4834 43.5631 40.2811 43.3604L31.4707 34.5591" stroke="#2D9CDB" stroke-width="2" stroke-linecap="round" stroke-linejoin="round"/>
<path d="M22.4494 35.5039C31.3888 33.7744 37.2335 25.1255 35.5039 16.1861C33.7744 7.24678 25.1255 1.40206 16.1862 3.1316C7.24679 4.86114 1.40207 13.51 3.13161 22.4494C4.86116 31.3887 13.51 37.2335 22.4494 35.5039Z" stroke="#2D9CDB" stroke-width="2" stroke-linecap="round" stroke-linejoin="round"/>
<path d="M19.7598 38.6303C22.2384 38.6303 24.6927 38.1421 26.9826 37.1936C29.2725 36.2451 31.3532 34.8549 33.1058 33.1022C34.8585 31.3496 36.2487 29.2689 37.1972 26.979C38.1458 24.6891 38.6339 22.2348 38.6339 19.7562" stroke="#EE222A" stroke-width="2" stroke-linecap="round" stroke-linejoin="round"/>
<path d="M20.7678 19.2988C22.7805 18.3839 22.9635 15.7856 23.2105 13.9924C23.4085 13.0077 23.3 11.9859 22.8994 11.0648C22.4523 10.2626 21.7109 9.66551 20.8318 9.39965C19.8523 9.07052 18.7921 9.07052 17.8127 9.39965C16.9336 9.66551 16.1922 10.2626 15.745 11.0648C15.3515 11.9779 15.24 12.9879 15.4248 13.965C15.6535 15.7947 15.8548 18.3839 17.8767 19.253" stroke="#2D9CDB" stroke-width="2" stroke-linecap="round" stroke-linejoin="round"/>
<path d="M17.0151 18.7041V20.4332L13.3556 21.8239C12.6273 22.1024 11.9879 22.5724 11.5047 23.1844C11.0216 23.7963 10.7128 24.5275 10.6109 25.3005L10.373 27.0662" stroke="#2D9CDB" stroke-width="2" stroke-linecap="round" stroke-linejoin="round"/>
<path d="M21.627 18.7041V20.4332L25.2865 21.8239C26.0148 22.1024 26.6542 22.5724 27.1374 23.1844C27.6205 23.7963 27.9293 24.5275 28.0312 25.3005L28.2691 27.0662" stroke="#2D9CDB" stroke-width="2" stroke-linecap="round" stroke-linejoin="round"/>
<path d="M17.0156 20.4333C17.0156 22.1624 19.3211 23.6079 19.3211 23.6079C19.3211 23.6079 21.6267 22.1624 21.6267 20.4333" stroke="#2D9CDB" stroke-width="2" stroke-linecap="round" stroke-linejoin="round"/>
</svg>
