<svg xmlns="http://www.w3.org/2000/svg" version="1.1" xmlns:xlink="http://www.w3.org/1999/xlink" xmlns:svgjs="http://svgjs.com/svgjs" width="512" height="512" x="0" y="0" viewBox="0 0 46 59" style="enable-background:new 0 0 512 512" xml:space="preserve" class="hovered-paths"><g><g xmlns="http://www.w3.org/2000/svg" id="Page-1" fill="none" fill-rule="evenodd"><g id="057---Hotel-Location" fill-rule="nonzero" transform="translate(-1 -1)"><path id="Shape" d="m47 24c.0066775 8.4879544-4.6698015 16.2872138-12.16 20.28l-.01.01-10.83 14.71-10.83-14.71-.01-.01c-9.92881294-5.3057243-14.55803157-17.0185221-10.93933803-27.6785922 3.61869354-10.66007002 14.42169433-17.13420877 25.52864453-15.29908126 11.1069502 1.8351275 19.2532996 11.44014136 19.2506935 22.69767346z" fill="#e54c3c" data-original="#e54c3c"></path><path id="Shape" d="m29 60h-10c-.5522847 0-1-.4477153-1-1s.4477153-1 1-1h10c.5522847 0 1 .4477153 1 1s-.4477153 1-1 1z" fill="#802f34" data-original="#802f34" class=""></path><path id="Shape" d="m43 24c.0075919 4.2356182-1.4121023 8.3502656-4.03 11.68-.1567099-.9668327-.9905516-1.6779261-1.97-1.68h-26c-.9794484.0020739-1.8132901.7131673-1.97 1.68-5.11239363-6.5513437-5.37273469-15.6653538-.64264943-22.4978472 4.73008523-6.83249349 13.35237863-9.7971207 21.28404923-7.31815414 7.9316705 2.47896656 13.3311648 9.82596724 13.3286002 18.13600134z" fill="#802f34" data-original="#802f34" class=""></path><path id="Rectangle-path" d="m19 12h10v23h-10z" fill="#efc319" data-original="#efc319" class="hovered-path"></path><path id="Shape" d="m13 18h6v17h-8v-15c0-1.1045695.8954305-2 2-2z" fill="#f19b1f" data-original="#f19b1f"></path><g fill="#285680"><path id="Shape" d="m25 18h-2c-.5522847 0-1-.4477153-1-1s.4477153-1 1-1h2c.5522847 0 1 .4477153 1 1s-.4477153 1-1 1z" fill="#285680" data-original="#285680"></path><path id="Shape" d="m25 22h-2c-.5522847 0-1-.4477153-1-1s.4477153-1 1-1h2c.5522847 0 1 .4477153 1 1s-.4477153 1-1 1z" fill="#285680" data-original="#285680"></path><path id="Shape" d="m25 26h-2c-.5522847 0-1-.4477153-1-1s.4477153-1 1-1h2c.5522847 0 1 .4477153 1 1s-.4477153 1-1 1z" fill="#285680" data-original="#285680"></path><path id="Shape" d="m25 30h-2c-.5522847 0-1-.4477153-1-1s.4477153-1 1-1h2c.5522847 0 1 .4477153 1 1s-.4477153 1-1 1z" fill="#285680" data-original="#285680"></path><circle id="Oval" cx="15" cy="22" r="1" fill="#285680" data-original="#285680"></circle><circle id="Oval" cx="15" cy="26" r="1" fill="#285680" data-original="#285680"></circle><circle id="Oval" cx="15" cy="30" r="1" fill="#285680" data-original="#285680"></circle></g><path id="Shape" d="m29 18h8v17h-6c-1.1045695 0-2-.8954305-2-2z" fill="#f19b1f" transform="matrix(-1 0 0 -1 66 53)" data-original="#f19b1f"></path><circle id="Oval" cx="33" cy="22" fill="#285680" r="1" data-original="#285680"></circle><circle id="Oval" cx="33" cy="26" fill="#285680" r="1" data-original="#285680"></circle><circle id="Oval" cx="33" cy="30" fill="#285680" r="1" data-original="#285680"></circle><path id="Shape" d="m31 13h-14c-.5522847 0-1-.4477153-1-1s.4477153-1 1-1h14c.5522847 0 1 .4477153 1 1s-.4477153 1-1 1z" fill="#f2d45b" data-original="#f2d45b" class=""></path><path id="Shape" d="m38.97 35.68c-2.5152974 3.2380683-6.0140904 5.5717667-9.97 6.65v-4.33h-10v4.33c-3.9559096-1.0782333-7.4547026-3.4119317-9.97-6.65.1567099-.9668327.9905516-1.6779261 1.97-1.68h26c.9794484.0020739 1.8132901.7131673 1.97 1.68z" fill="#f2d45b" data-original="#f2d45b" class=""></path><path id="Shape" d="m24 38v5.0000306c-1.6892472.0030225-3.3711508-.2223526-5-.6700306v-4.33z" fill="#2c3e50" data-original="#2c3e50"></path><path id="Shape" d="m29 38v4.33c-1.6288492.447678-3.3107528.6730531-5 .6700306v-5.0000306z" fill="#35495e" data-original="#35495e"></path><path id="Shape" d="m30 39h-12c-.5522847 0-1-.4477153-1-1s.4477153-1 1-1h12c.5522847 0 1 .4477153 1 1s-.4477153 1-1 1z" fill="#efc319" data-original="#efc319" class="hovered-path"></path></g></g></g></svg>