<svg width="45" height="47" viewBox="0 0 45 47" fill="none" xmlns="http://www.w3.org/2000/svg">
<path d="M14.6101 30.1002C13.7649 30.7767 13.1109 31.6621 12.7128 32.6688C12.3147 33.6755 12.1862 34.7686 12.3401 35.8402" stroke="#EE222A" stroke-width="2" stroke-linecap="round" stroke-linejoin="round"/>
<path d="M15.2401 46.0002H17.4201V43.1002C17.4201 39.9002 15.2401 35.8402 12.3401 35.8402C9.44007 35.8402 7.26007 39.9002 7.26007 43.1002V46.0002H9.44007" stroke="#EE222A" stroke-width="2" stroke-linecap="round" stroke-linejoin="round"/>
<path d="M30.2501 30.0502C32.8201 31.2002 32.6601 37.2902 32.6601 37.2902V38.7402" stroke="#EE222A" stroke-width="2" stroke-linecap="round" stroke-linejoin="round"/>
<path d="M32.6601 46.0002C34.6649 46.0002 36.2901 44.375 36.2901 42.3702C36.2901 40.3654 34.6649 38.7402 32.6601 38.7402C30.6553 38.7402 29.0301 40.3654 29.0301 42.3702C29.0301 44.375 30.6553 46.0002 32.6601 46.0002Z" stroke="#EE222A" stroke-width="2" stroke-linecap="round" stroke-linejoin="round"/>
<path d="M26.1301 26.4002C31.2101 24.2302 31.7401 17.6302 32.2901 13.1102C32.5901 10.6802 32.6801 8.05022 31.5001 5.81022C30.3659 3.79638 28.5003 2.29608 26.2901 1.62022C23.8311 0.793261 21.1691 0.793261 18.7101 1.62022C16.4998 2.29608 14.6343 3.79638 13.5001 5.81022C12.3201 8.05022 12.4101 10.6802 12.7101 13.1102C13.2601 17.6302 13.7901 24.2302 18.8701 26.4002" stroke="#2D9CDB" stroke-width="2" stroke-linecap="round" stroke-linejoin="round"/>
<path d="M16.6901 25.0002V29.3502L7.51006 32.8002C3.78006 34.2302 2.12006 37.5802 1.59006 41.5402L1.00006 46.0002" stroke="#2D9CDB" stroke-width="2" stroke-linecap="round" stroke-linejoin="round"/>
<path d="M28.3101 25.0002V29.3502L37.4901 32.8402C41.2201 34.2702 42.8801 37.6202 43.4101 41.5802L44.0001 46.0002" stroke="#2D9CDB" stroke-width="2" stroke-linecap="round" stroke-linejoin="round"/>
<path d="M16.0001 11.1603C23.2601 11.1603 24.7101 9.71027 25.4301 7.53027C25.4301 7.53027 25.4301 11.1603 29.0601 11.1603" stroke="#2D9CDB" stroke-width="2" stroke-linecap="round" stroke-linejoin="round"/>
<path d="M16.6901 29.3102C16.6901 33.6602 22.5001 37.3102 22.5001 37.3102C22.5001 37.3102 28.3101 33.6802 28.3101 29.3102" stroke="#2D9CDB" stroke-width="2" stroke-linecap="round" stroke-linejoin="round"/>
</svg>
