<svg width="45" height="47" viewBox="0 0 45 47" fill="none" xmlns="http://www.w3.org/2000/svg">
<path d="M12.7901 40.1582L14.1801 35.0782" stroke="#2D9CDB" stroke-width="2" stroke-linecap="round" stroke-linejoin="round"/>
<path d="M32.2101 40.1582L30.8201 35.0782" stroke="#2D9CDB" stroke-width="2" stroke-linecap="round" stroke-linejoin="round"/>
<path d="M10.0201 29.2682L6.55006 30.7182L1.00006 45.2382L12.7901 40.1582L22.5001 45.2382L32.2101 40.1582L44.0001 45.2382L38.4501 30.7182L34.9801 29.2682" stroke="#2D9CDB" stroke-width="2" stroke-linecap="round" stroke-linejoin="round"/>
<path d="M37.0001 14.7582C37.0001 24.9182 22.5001 36.5282 22.5001 36.5282C22.5001 36.5282 8.00006 24.9182 8.00006 14.7582C8.19519 11.0442 9.80797 7.54675 12.5059 4.9869C15.2037 2.42705 18.781 1 22.5001 1C26.2191 1 29.7964 2.42705 32.4943 4.9869C35.1921 7.54675 36.8049 11.0442 37.0001 14.7582V14.7582Z" stroke="#2D9CDB" stroke-width="2" stroke-linecap="round" stroke-linejoin="round"/>
<path d="M22.2201 20.4482L28.8801 12.5782C29.0029 12.4078 29.069 12.2032 29.069 11.9932C29.069 11.7832 29.0029 11.5785 28.8801 11.4082C28.8046 11.3088 28.71 11.2254 28.602 11.1629C28.4939 11.1005 28.3745 11.0602 28.2507 11.0443C28.1269 11.0285 28.0012 11.0375 27.8809 11.0708C27.7606 11.1041 27.6481 11.161 27.5501 11.2382L21.1701 16.6482C21.143 16.6766 21.1104 16.6992 21.0743 16.7147C21.0382 16.7302 20.9993 16.7382 20.9601 16.7382C20.9208 16.7382 20.8819 16.7302 20.8458 16.7147C20.8097 16.6992 20.7771 16.6766 20.7501 16.6482L17.6501 14.6982C17.43 14.5608 17.17 14.5018 16.9122 14.5308C16.6544 14.5599 16.414 14.6752 16.2301 14.8582V14.8582C16.0242 15.0647 15.9045 15.3418 15.8952 15.6333C15.886 15.9248 15.9878 16.2089 16.1801 16.4282L19.7501 20.4282C19.9016 20.6071 20.09 20.7511 20.3024 20.8506C20.5147 20.95 20.746 21.0025 20.9805 21.0044C21.2149 21.0063 21.4471 20.9576 21.661 20.8616C21.8749 20.7656 22.0656 20.6246 22.2201 20.4482V20.4482Z" stroke="#EE222A" stroke-width="2" stroke-linecap="round" stroke-linejoin="round"/>
</svg>
