<svg width="46" height="47" viewBox="0 0 46 47" fill="none" xmlns="http://www.w3.org/2000/svg">
<path d="M6.81006 4.63C6.81006 2.63 8.11006 1 9.71006 1C11.3101 1 12.6101 2.62 12.6101 4.63C12.6101 6.64 11.3101 8.26 9.71006 8.26" stroke="#2D9CDB" stroke-width="2" stroke-linecap="round" stroke-linejoin="round"/>
<path d="M18.8701 4.63C18.8701 2.63 20.1701 1 21.7701 1C23.3701 1 24.6801 2.62 24.6801 4.63C24.6801 6.64 23.3801 8.26 21.7701 8.26" stroke="#2D9CDB" stroke-width="2" stroke-linecap="round" stroke-linejoin="round"/>
<path d="M30.9401 4.63C30.9401 2.63 32.2401 1 33.8401 1C35.4401 1 36.7401 2.62 36.7401 4.63C36.7401 6.64 35.4401 8.26 33.8401 8.26" stroke="#2D9CDB" stroke-width="2" stroke-linecap="round" stroke-linejoin="round"/>
<path d="M20.3201 4.63H12.6101" stroke="#2D9CDB" stroke-width="2" stroke-linecap="round" stroke-linejoin="round"/>
<path d="M8.26006 4.63H1.00006V39.47H17.6901" stroke="#2D9CDB" stroke-width="2" stroke-linecap="round" stroke-linejoin="round"/>
<path d="M32.3901 4.63H24.6801" stroke="#2D9CDB" stroke-width="2" stroke-linecap="round" stroke-linejoin="round"/>
<path d="M41.8201 20.6V4.63H36.7401" stroke="#2D9CDB" stroke-width="2" stroke-linecap="round" stroke-linejoin="round"/>
<path d="M9.71006 13.34H41.8201" stroke="#2D9CDB" stroke-width="2" stroke-linecap="round" stroke-linejoin="round"/>
<path d="M33.3901 46C39.8021 46 45.0001 40.8021 45.0001 34.39C45.0001 27.978 39.8021 22.78 33.3901 22.78C26.978 22.78 21.7801 27.978 21.7801 34.39C21.7801 40.8021 26.978 46 33.3901 46Z" stroke="#EE222A" stroke-width="2" stroke-linecap="round" stroke-linejoin="round"/>
<path d="M33.3901 28.58V34.39H39.1901" stroke="#EE222A" stroke-width="2" stroke-linecap="round" stroke-linejoin="round"/>
</svg>
