<svg width="12" height="15" viewBox="0 0 12 15" fill="#fff" xmlns="http://www.w3.org/2000/svg" stroke="#2D9CDA">
<path d="M1 12.278C1 10.5889 2.21238 9.15007 3.86003 8.88386L4.00844 8.85988C5.3278 8.64671 6.6722 8.64671 7.99156 8.85988L8.13997 8.88386C9.78762 9.15007 11 10.5889 11 12.278C11 13.0081 10.4154 13.6 9.69419 13.6H2.30581C1.58463 13.6 1 13.0081 1 12.278Z"  stroke-width="1.5"/>
<path d="M8.91668 3.75625C8.91668 5.27849 7.61085 6.5125 6.00001 6.5125C4.38918 6.5125 3.08335 5.27849 3.08335 3.75625C3.08335 2.23402 4.38918 1 6.00001 1C7.61085 1 8.91668 2.23402 8.91668 3.75625Z" stroke-width="1.5"/>
</svg>
