<svg width="49" height="48" viewBox="0 0 49 48" fill="none" xmlns="http://www.w3.org/2000/svg">
<path d="M34.563 31.4668L43.3643 40.2772C43.567 40.4795 43.7279 40.7197 43.8377 40.9843C43.9474 41.2488 44.0039 41.5324 44.0039 41.8188C44.0039 42.1052 43.9474 42.3888 43.8377 42.6533C43.7279 42.9178 43.567 43.1581 43.3643 43.3604C43.162 43.5631 42.9217 43.724 42.6572 43.8338C42.3927 43.9435 42.1091 44 41.8227 44C41.5363 44 41.2527 43.9435 40.9882 43.8338C40.7236 43.724 40.4834 43.5631 40.2811 43.3604L31.4707 34.5591" stroke="#2D9CDB" stroke-width="2" stroke-linecap="round" stroke-linejoin="round"/>
<path d="M22.4494 35.5039C31.3888 33.7744 37.2335 25.1255 35.5039 16.1862C33.7744 7.24681 25.1255 1.40209 16.1862 3.13163C7.24679 4.86117 1.40207 13.51 3.13161 22.4494C4.86116 31.3888 13.51 37.2335 22.4494 35.5039Z" stroke="#2D9CDB" stroke-width="2" stroke-linecap="round" stroke-linejoin="round"/>
<path d="M19.7598 38.6303C22.2384 38.6303 24.6927 38.1421 26.9826 37.1936C29.2725 36.2451 31.3532 34.8549 33.1058 33.1022C34.8585 31.3496 36.2487 29.2689 37.1972 26.979C38.1458 24.6891 38.6339 22.2348 38.6339 19.7562" stroke="#EE222A" stroke-width="2" stroke-linecap="round" stroke-linejoin="round"/>
<line x1="20" y1="13" x2="20" y2="27" stroke="#2D9CDB" stroke-width="2" stroke-linecap="round" stroke-linejoin="round"/>
<line x1="27" y1="20" x2="13" y2="20" stroke="#2D9CDB" stroke-width="2" stroke-linecap="round" stroke-linejoin="round"/>
</svg>
