<svg width="48" height="48" viewBox="0 0 48 48" fill="none" xmlns="http://www.w3.org/2000/svg">
<path d="M37.7112 20.3508V14.842C37.7041 14.342 37.5051 13.8638 37.1555 13.5063L28.1952 4.55579C28.0212 4.37829 27.8133 4.23761 27.5838 4.14213C27.3544 4.04665 27.108 3.99833 26.8595 4.00004H5.624C5.4585 4.00004 5.29979 4.06579 5.18277 4.18281C5.06574 4.29983 5 4.45855 5 4.62404V33.5328" stroke="#2D9CDB" stroke-width="2" stroke-linecap="round" stroke-linejoin="round"/>
<path d="M37.711 14.6958H28.936C28.6024 14.6958 28.2825 14.5632 28.0466 14.3274C27.8107 14.0915 27.6782 13.7716 27.6782 13.438V11.5465" stroke="#2D9CDB" stroke-width="2" stroke-linecap="round" stroke-linejoin="round"/>
<path d="M23.2422 20.3508H43.9999V43.0001H28.9069" stroke="#2D9CDB" stroke-width="2" stroke-linecap="round" stroke-linejoin="round"/>
<path d="M37.7112 25.3818L26.3817 31.6803L23.2422 29.8766" stroke="#2D9CDB" stroke-width="2" stroke-linecap="round" stroke-linejoin="round"/>
<path d="M23.8663 40.4845V39.2268C23.8676 38.9788 23.8199 38.7331 23.7259 38.5037C23.6319 38.2742 23.4935 38.0656 23.3186 37.8899C23.1437 37.7141 22.9359 37.5746 22.7069 37.4794C22.478 37.3843 22.2325 37.3353 21.9845 37.3353H18.8353C18.5017 37.3353 18.1818 37.2028 17.9459 36.9669C17.7101 36.731 17.5775 36.4111 17.5775 36.0775V35.3073C17.5549 33.2209 18.2426 31.1889 19.5275 29.545C20.0815 28.8353 20.4583 28.0037 20.6267 27.1193C20.795 26.2349 20.7502 25.323 20.4959 24.4594C20.2415 23.5958 19.785 22.8052 19.1641 22.1532C18.5432 21.5012 17.7759 21.0066 16.9257 20.7104C16.0755 20.4142 15.1669 20.3249 14.2753 20.4499C13.3837 20.5749 12.5348 20.9106 11.7988 21.4292C11.0629 21.9479 10.4611 22.6344 10.0435 23.432C9.62585 24.2296 9.40434 25.1153 9.39731 26.0155C9.394 27.2625 9.80945 28.4745 10.5771 29.4573C11.8201 31.0414 12.5055 32.9915 12.5271 35.005V36.0775C12.5271 36.4078 12.3973 36.7247 12.1656 36.9601C11.9339 37.1954 11.619 37.3302 11.2888 37.3353H8.13956C7.6396 37.3379 7.16099 37.5383 6.80837 37.8927C6.45575 38.2472 6.25781 38.7268 6.25781 39.2268V40.4845" stroke="#EE222A" stroke-width="2" stroke-linecap="round" stroke-linejoin="round"/>
<path d="M18.8353 37.3353H16.3198" stroke="#EE222A" stroke-width="2" stroke-linecap="round" stroke-linejoin="round"/>
<path d="M6.88184 43H23.2423" stroke="#EE222A" stroke-width="2" stroke-linecap="round" stroke-linejoin="round"/>
</svg>
