<svg width="18" height="18" viewBox="0 0 18 18" fill="none" xmlns="http://www.w3.org/2000/svg">
<g id="Iconly/Light-Outline/Arrow - Down Circle">
<g id="Arrow - Down Circle">
<path id="Fill 1" fill-rule="evenodd" clip-rule="evenodd" d="M9 2.625C5.48475 2.625 2.625 5.48475 2.625 9C2.625 12.5153 5.48475 15.375 9 15.375C12.5153 15.375 15.375 12.5153 15.375 9C15.375 5.48475 12.5153 2.625 9 2.625ZM9 16.5C4.8645 16.5 1.5 13.1355 1.5 9C1.5 4.8645 4.8645 1.5 9 1.5C13.1355 1.5 16.5 4.8645 16.5 9C16.5 13.1355 13.1355 16.5 9 16.5Z" fill="#162833"/>
<path id="Fill 3" fill-rule="evenodd" clip-rule="evenodd" d="M9 11.0954C8.85075 11.0954 8.70675 11.0362 8.60175 10.9297L5.9985 8.31516C5.77875 8.09466 5.78025 7.73841 6 7.51941C6.2205 7.30041 6.57675 7.30041 6.79575 7.52091L9 9.73641L11.205 7.52091C11.424 7.30041 11.7802 7.30041 12.0007 7.51941C12.2205 7.73841 12.2212 8.09466 12.0022 8.31516L9.39825 10.9297C9.29325 11.0362 9.14925 11.0954 9 11.0954Z" fill="#162833"/>
</g>
</g>
</svg>
