<svg width="46" height="46" viewBox="0 0 46 46" fill="none" xmlns="http://www.w3.org/2000/svg">
<path d="M20.853 28.6934C20.853 28.6934 30.9164 28.9767 39.2798 18.0633C39.2798 18.0633 36.1826 17.7311 35.0297 16.6466C40.6965 15.9334 44.2431 10.9701 44.9563 1.01413C44.9563 1.01413 29.3238 0.31067 22.2697 8.83036C20.8851 10.392 20.1266 12.4102 20.1398 14.4971L18.7231 12.3672C15.9429 16.0057 14.6726 20.576 15.1765 25.1272" stroke="#2D9CDB" stroke-width="2" stroke-linecap="round" stroke-linejoin="round"/>
<path d="M13.7598 33.6567C13.7598 33.6567 21.5174 19.48 31.4831 11.6833" stroke="#2D9CDB" stroke-width="2" stroke-linecap="round" stroke-linejoin="round"/>
<path d="M27.9367 1.03363H1C6.2955 16.3339 2.79773 32.1227 1.4592 37.0469C1.04205 38.4952 1.16116 40.0453 1.79467 41.4129C2.42819 42.7804 3.53362 43.8736 4.90812 44.4919C5.68849 44.8291 6.52991 45.002 7.38 44.9999V44.9999C9.0705 44.9948 10.6903 44.321 11.8856 43.1256C13.081 41.9302 13.7548 40.3104 13.76 38.6199H37.1501C37.1475 40.3112 36.4745 41.9325 35.2786 43.1284C34.0826 44.3243 32.4614 44.9974 30.7701 44.9999H7.38" stroke="#2D9CDB" stroke-width="2" stroke-linecap="round" stroke-linejoin="round"/>
<path d="M30.0664 34.3699C31.0255 31.6361 31.5048 28.7571 31.4831 25.86" stroke="#2D9CDB" stroke-width="2" stroke-linecap="round" stroke-linejoin="round"/>
<path d="M7.37891 8.84985H17.3055" stroke="#EE222A" stroke-width="2" stroke-linecap="round" stroke-linejoin="round"/>
<path d="M8.09375 14.5167H13.0473" stroke="#EE222A" stroke-width="2" stroke-linecap="round" stroke-linejoin="round"/>
<path d="M8.09375 20.1932H11.6306" stroke="#EE222A" stroke-width="2" stroke-linecap="round" stroke-linejoin="round"/>
</svg>
