<svg width="240" height="60" viewBox="0 0 240 60" fill="none" xmlns="http://www.w3.org/2000/svg">
<path d="M28.7108 19.2154C33.9963 19.2154 38.281 14.9139 38.281 9.60768C38.281 4.3015 33.9963 0 28.7108 0C23.4253 0 19.1406 4.3015 19.1406 9.60768C19.1406 14.9139 23.4253 19.2154 28.7108 19.2154Z" fill="#2D9CDB"/>
<path d="M47.8509 19.2155H9.57018C7.03201 19.2155 4.5978 20.2277 2.80304 22.0295C1.00828 23.8313 0 26.275 0 28.8231H0C0 31.3712 1.00828 33.815 2.80304 35.6168C4.5978 37.4186 7.03201 38.4308 9.57018 38.4308H19.1404V48.0385C19.1404 50.5866 20.1486 53.0304 21.9434 54.8322C23.7382 56.6339 26.1724 57.6462 28.7105 57.6462C31.2487 57.6462 33.6829 56.6339 35.4777 54.8322C37.2724 53.0304 38.2807 50.5866 38.2807 48.0385V38.4308H47.8509C50.3891 38.4308 52.8233 37.4186 54.618 35.6168C56.4128 33.815 57.4211 31.3712 57.4211 28.8231C57.4211 26.275 56.4128 23.8313 54.618 22.0295C52.8233 20.2277 50.3891 19.2155 47.8509 19.2155Z" fill="#2D9CDB"/>
<path d="M47.8512 19.2155H19.1406V28.8231V48.0385C19.1406 50.5866 20.1489 53.0304 21.9437 54.8322C23.7384 56.6339 26.1726 57.6462 28.7108 57.6462C31.249 57.6462 33.6832 56.6339 35.4779 54.8322C37.2727 53.0304 38.281 50.5866 38.281 48.0385V38.4308H47.8512C50.3893 38.4308 52.8236 37.4186 54.6183 35.6168C56.4131 33.815 57.4213 31.3712 57.4213 28.8231C57.4213 26.275 56.4131 23.8313 54.6183 22.0295C52.8236 20.2277 50.3893 19.2155 47.8512 19.2155Z" fill="#EE222A"/>
<path d="M19.1406 28.8231V48.0385C19.1406 50.5866 20.1489 53.0304 21.9437 54.8322C23.7384 56.6339 26.1726 57.6462 28.7108 57.6462C31.249 57.6462 33.6832 56.6339 35.4779 54.8322C37.2727 53.0304 38.281 50.5866 38.281 48.0385V38.4308L19.1406 19.2155V28.8231Z" fill="#9C2066"/>
<path d="M87.6799 38.1232V28.7423H84.4088L78.7739 36.6648C78.4921 37.1532 78.0797 37.5526 77.5833 37.8177C77.1169 38.0313 76.6087 38.137 76.0961 38.1271H72.1953L78.7222 28.9383C79.2964 28.0851 80.1902 27.6143 81.3808 27.5336V27.499L80.8219 27.4798C80.1211 27.4572 79.4338 27.2808 78.8083 26.9629C78.108 26.619 77.467 26.1649 76.9096 25.6178C76.3043 25.013 75.8231 24.2949 75.4932 23.5041C75.1267 22.6592 74.939 21.7471 74.942 20.8255C74.942 18.5299 75.7146 16.6385 77.2599 15.1512C78.8051 13.6639 80.7192 12.9203 83.002 12.9203H92.3999V38.1232H87.6799ZM87.6799 17.4993H83.2355C82.2995 17.4702 81.3882 17.8032 80.6898 18.4293C80.3554 18.7284 80.0904 19.0974 79.9135 19.5104C79.7366 19.9234 79.652 20.3704 79.6658 20.8197C79.6565 21.2668 79.7432 21.7106 79.9198 22.1211C80.0965 22.5316 80.3591 22.899 80.6898 23.1986C81.3687 23.8375 82.2707 24.1826 83.201 24.1594H87.6799V17.4993Z" fill="#162833"/>
<path d="M120.104 24.7533C121.569 24.9933 122.903 25.747 123.867 26.8804C124.822 27.9855 125.338 29.4048 125.318 30.8676C125.342 31.908 125.126 32.94 124.688 33.883C124.249 34.8259 123.599 35.6544 122.789 36.3037C121.105 37.7128 118.921 38.4174 116.238 38.4174C114.604 38.4103 112.99 38.0663 111.495 37.4066C110.05 36.814 108.74 35.9328 107.645 34.8164L108.748 33.0601C108.88 32.8555 109.052 32.6799 109.253 32.5438C109.454 32.4077 109.681 32.3141 109.919 32.2684C110.175 32.2173 110.438 32.2175 110.693 32.269C110.948 32.3204 111.191 32.4221 111.407 32.5682C112.772 33.504 114.391 33.9945 116.044 33.9728C117.537 33.9728 118.716 33.6622 119.579 33.0409C119.993 32.758 120.329 32.3746 120.555 31.9264C120.781 31.4782 120.891 30.9797 120.873 30.4776C120.884 29.9647 120.759 29.4583 120.51 29.0103C120.261 28.5624 119.898 28.1894 119.457 27.9296C118.511 27.3198 117.275 27.0156 115.748 27.0169H113.403V22.8048H115.73C116.93 22.8048 117.898 22.5614 118.634 22.0747C118.981 21.8616 119.266 21.56 119.46 21.2005C119.653 20.8411 119.749 20.4367 119.736 20.0282C119.736 19.0329 119.395 18.295 118.712 17.8146C118.031 17.3361 117.139 17.1017 116.061 17.1017C114.696 17.1017 113.174 17.6289 111.495 18.6831C111.311 18.8037 111.104 18.8854 110.887 18.9234C110.671 18.9613 110.449 18.9548 110.235 18.9041C110.003 18.8493 109.787 18.7425 109.602 18.5918C109.417 18.441 109.268 18.2502 109.167 18.0337L108.187 16.2063C109.207 15.0675 110.469 14.1732 111.879 13.5891C113.362 12.9318 114.965 12.5909 116.586 12.588C118.779 12.588 120.582 13.2208 121.993 14.4865C123.404 15.7521 124.111 17.4207 124.112 19.4921C124.136 20.705 123.75 21.8904 123.017 22.8548C122.292 23.8043 121.263 24.4746 120.104 24.7533Z" fill="#162833"/>
<path d="M144.425 34.0824H146.929L146.91 38.1176V41.7012L144.374 41.682C143.335 41.682 142.816 41.0851 142.816 39.8912V38.1233H130.323V39.8969C130.323 41.1037 129.699 41.707 128.451 41.707H126.229V34.0824H127.331C127.924 33.8364 128.472 33.324 128.975 32.5451C129.478 31.7663 129.787 30.7177 129.902 29.3996L130.602 20.0532H144.425V34.0824ZM132.719 34.0824H139.964V24.1749H134.767L134.365 29.5667C134.226 31.5049 133.677 33.0101 132.719 34.0824Z" fill="#162833"/>
<path d="M151.53 35.8212C149.768 34.065 148.887 31.8283 148.887 29.1112C148.887 26.3942 149.768 24.1569 151.53 22.3993C153.291 20.643 155.536 19.7649 158.265 19.7649C160.995 19.7649 163.241 20.643 165.003 22.3993C166.764 24.1582 167.645 26.3955 167.646 29.1112C167.647 31.827 166.766 34.0637 165.003 35.8212C163.242 37.5775 160.996 38.4557 158.265 38.4557C155.535 38.4557 153.29 37.5775 151.53 35.8212ZM154.74 25.5795C153.813 26.5056 153.35 27.6829 153.35 29.1112C153.35 30.5396 153.813 31.7162 154.74 32.6411C155.668 33.5673 156.843 34.0304 158.265 34.0304C159.688 34.0304 160.864 33.5673 161.793 32.6411C162.719 31.7162 163.183 30.5396 163.183 29.1112C163.183 27.6829 162.719 26.5056 161.793 25.5795C160.865 24.6546 159.69 24.1921 158.265 24.1921C156.841 24.1921 155.666 24.6546 154.74 25.5795Z" fill="#162833"/>
<path d="M181.068 19.7477C183.378 19.7477 185.267 20.6201 186.737 22.3648C188.207 24.1096 188.942 26.3405 188.942 29.0575C188.942 31.7746 188.14 34.0119 186.536 35.7694C184.933 37.527 182.891 38.4052 180.412 38.4039C178.731 38.4039 177.232 37.771 175.914 36.5054V44.4471H171.442V20.0628H174.277C175.363 20.0628 175.905 20.7251 175.904 22.0497V22.067C177.362 20.5208 179.084 19.7477 181.068 19.7477ZM179.897 34.0305C180.513 34.0478 181.125 33.932 181.693 33.691C182.261 33.45 182.77 33.0893 183.187 32.6335C184.051 31.7009 184.482 30.5211 184.481 29.094C184.48 27.667 184.06 26.5044 183.221 25.6064C182.811 25.1655 182.311 24.8175 181.756 24.5855C181.201 24.3536 180.603 24.2431 180.002 24.2614C178.462 24.2614 177.096 25.0229 175.906 26.5461V32.1858C176.372 32.7129 176.937 33.1425 177.569 33.4502C178.285 33.8319 179.084 34.0312 179.895 34.0305H179.897Z" fill="#162833"/>
<path d="M193.997 35.8212C192.236 34.065 191.355 31.8283 191.355 29.1112C191.355 26.3942 192.236 24.1569 193.997 22.3993C195.758 20.643 198.004 19.7649 200.734 19.7649C203.465 19.7649 205.71 20.643 207.47 22.3993C209.233 24.1582 210.114 26.3955 210.113 29.1112C210.112 31.827 209.231 34.0637 207.47 35.8212C205.709 37.5775 203.464 38.4557 200.734 38.4557C198.005 38.4557 195.759 37.5775 193.997 35.8212ZM197.209 25.5795C196.281 26.5056 195.817 27.6829 195.817 29.1112C195.817 30.5396 196.281 31.7162 197.209 32.6411C198.135 33.5673 199.31 34.0304 200.734 34.0304C202.158 34.0304 203.334 33.5673 204.26 32.6411C205.186 31.7162 205.65 30.5396 205.651 29.1112C205.653 27.6829 205.189 26.5056 204.26 25.5795C203.331 24.6546 202.156 24.1921 200.734 24.1921C199.313 24.1921 198.138 24.6546 197.209 25.5795Z" fill="#162833"/>
<path d="M226.683 28.6884C227.608 28.9375 228.429 29.476 229.028 30.2256C229.634 30.9776 229.956 31.9199 229.939 32.8869C229.956 33.599 229.816 34.3061 229.527 34.9567C229.237 35.6072 228.807 36.1848 228.268 36.6474C227.154 37.6299 225.745 38.1218 224.042 38.1231H213.911V20.0819H223.289C224.993 20.0819 226.397 20.5469 227.5 21.4769C228.033 21.9115 228.459 22.463 228.746 23.089C229.032 23.715 229.172 24.3987 229.154 25.0875C229.165 25.8737 228.927 26.643 228.473 27.2838C228.028 27.9194 227.405 28.4082 226.683 28.6884ZM218.372 23.998V27.3895H222.966C223.452 27.4038 223.926 27.2305 224.289 26.9052C224.46 26.756 224.596 26.571 224.688 26.3631C224.78 26.1553 224.825 25.9297 224.821 25.7024C224.827 25.4729 224.783 25.2449 224.692 25.0342C224.602 24.8235 224.467 24.6351 224.296 24.4822C223.938 24.156 223.467 23.9824 222.983 23.998H218.372ZM223.586 34.2224C224.098 34.2368 224.595 34.0475 224.968 33.6959C225.148 33.5317 225.292 33.3307 225.389 33.1063C225.485 32.882 225.533 32.6395 225.529 32.395C225.535 32.1541 225.488 31.9148 225.393 31.6935C225.298 31.4723 225.156 31.2743 224.978 31.1134C224.603 30.7706 224.11 30.588 223.603 30.6042H218.372V34.2224H223.586Z" fill="#162833"/>
<path d="M239.178 37.587C238.7 38.0922 238.061 38.4144 237.372 38.4983C236.683 38.5821 235.987 38.4223 235.402 38.0463C234.818 37.6703 234.382 37.1017 234.17 36.4381C233.958 35.7746 233.983 35.0576 234.24 34.4105C234.498 33.7634 234.972 33.2265 235.581 32.8922C236.19 32.558 236.896 32.4472 237.577 32.5789C238.259 32.7106 238.874 33.0766 239.316 33.6139C239.758 34.1513 239.999 34.8264 239.999 35.5233C240.009 35.9053 239.942 36.2854 239.801 36.6403C239.66 36.9952 239.448 37.3174 239.178 37.587ZM235.415 30.5331C235.016 27.9932 234.799 25.4277 234.768 22.8566V12.9146H239.423V22.8662C239.393 25.4317 239.176 27.9916 238.774 30.5254L235.415 30.5331Z" fill="#162833"/>
<path d="M78.7547 51.061H79.9548V57.6865H78.3183V53.7608C78.3256 53.6052 78.3539 53.4513 78.4025 53.3034L76.7392 56.6412C76.6786 56.7615 76.583 56.8605 76.4651 56.9251C76.3472 56.9896 76.2125 57.0166 76.0789 57.0025C75.9444 57.016 75.8088 56.9889 75.6898 56.9245C75.5708 56.8601 75.4736 56.7615 75.4109 56.6412L73.7476 53.3034C73.7976 53.451 73.826 53.605 73.8318 53.7608V57.6865H72.1953V51.061H73.4012C73.6163 51.0517 73.8307 51.0932 74.027 51.182C74.2105 51.2939 74.357 51.4577 74.4481 51.6528L75.9794 54.5352C76.0446 54.7207 76.0813 54.915 76.0885 55.1116C76.0923 54.9154 76.1265 54.7209 76.1899 54.5352L77.679 51.6528C77.7645 51.4623 77.9062 51.3027 78.0848 51.1955C78.2938 51.0964 78.5238 51.0503 78.7547 51.061Z" fill="#162833"/>
<path d="M88.0189 54.1874C88.0264 54.3871 87.9579 54.5822 87.8275 54.7331C87.768 54.8052 87.693 54.8627 87.6081 54.9013C87.5232 54.9399 87.4307 54.9586 87.3375 54.956H83.0501C83.1454 55.3293 83.3666 55.658 83.6759 55.8861C83.9994 56.121 84.3908 56.2426 84.7899 56.232C85.0834 56.2207 85.3706 56.1432 85.6302 56.0052C85.7676 55.9372 85.9174 55.898 86.0704 55.8899C86.2268 55.8817 86.3825 55.9148 86.5221 55.986C86.6763 56.0622 86.8057 56.1808 86.8954 56.328L87.2227 56.8238C86.9198 57.1383 86.5529 57.3834 86.147 57.5425C85.7165 57.7201 85.2554 57.8109 84.7899 57.8096C84.3346 57.8264 83.8807 57.7499 83.4558 57.5848C83.0309 57.4196 82.6441 57.1691 82.3189 56.8488C81.8281 56.37 81.4918 55.7543 81.3536 55.0814C81.2154 54.4086 81.2817 53.7095 81.5438 53.0749C81.8059 52.4403 82.2519 51.8993 82.8238 51.5221C83.3958 51.1449 84.0674 50.9488 84.7516 50.9592C85.3337 50.9497 85.9085 51.0907 86.4207 51.3685C86.9068 51.6361 87.3081 52.0356 87.5787 52.5214C87.8631 53.0306 88.0146 53.6037 88.0189 54.1874ZM83.6013 53.7051H86.3231C86.2303 53.3619 86.0257 53.0598 85.7419 52.847C85.4581 52.6341 85.1115 52.5229 84.7574 52.531C84.3411 52.5172 83.9337 52.6535 83.609 52.9153C83.2931 53.1787 83.0813 53.5467 83.0118 53.953H83.0309C83.0991 53.8685 83.1865 53.8017 83.2858 53.7582C83.385 53.7148 83.4932 53.6959 83.6013 53.7032V53.7051Z" fill="#162833"/>
<path d="M94.8939 56.2031H95.8108V57.6865V59.0008H94.8805C94.4977 59.0008 94.3063 58.7818 94.3063 58.3436V57.6942H89.7203V58.3436C89.7203 58.7869 89.4912 59.0085 89.0332 59.0085H88.2178V56.2031H88.6197C88.8727 56.0818 89.083 55.8861 89.2226 55.642C89.428 55.2913 89.545 54.8955 89.5633 54.4891L89.8198 51.061H94.892L94.8939 56.2031ZM90.5988 56.2031H93.2574V52.5694H91.3434L91.196 54.5467C91.1501 55.2557 90.9491 55.8091 90.5988 56.2031Z" fill="#162833"/>
<path d="M97.0415 57.6865V51.0667H98.6857L98.634 55.469C98.6802 55.2177 98.762 54.9744 98.8771 54.7465L100.791 51.5183C100.866 51.3506 101.003 51.2194 101.174 51.1532C101.397 51.0879 101.629 51.0587 101.861 51.0667H103.061V57.6865H101.419L101.463 52.6386C101.438 52.8555 101.384 53.0682 101.302 53.2707L98.8982 57.3175C98.8404 57.4238 98.7567 57.5137 98.6551 57.5789C98.5652 57.6446 98.458 57.6821 98.3469 57.6865H97.0415Z" fill="#162833"/>
<path d="M110.704 56.1839H111.47V57.6865V59.0008H110.54C110.46 59.0097 110.379 59.001 110.303 58.9755C110.227 58.9499 110.158 58.9081 110.099 58.8529C110.002 58.7019 109.959 58.5226 109.975 58.3437V57.6942H104.947V51.0668H106.578V56.1839H109.066V51.0668H110.702L110.704 56.1839Z" fill="#162833"/>
<path d="M112.708 57.6865V51.0667H114.35L114.299 55.469C114.345 55.2177 114.428 54.9744 114.544 54.7465L116.458 51.5183C116.535 51.3494 116.676 51.2182 116.85 51.1532C117.073 51.0879 117.305 51.0587 117.537 51.0667H118.737V57.6865H117.093L117.139 52.6386C117.114 52.8555 117.06 53.0682 116.978 53.2707L114.57 57.3175C114.513 57.4238 114.429 57.5137 114.327 57.5789C114.237 57.6439 114.13 57.6813 114.019 57.6865H112.708Z" fill="#162833"/>
<path d="M124.986 51.0668H126.623V57.6865H124.986V55.0885H122.272V57.6865H120.636V51.0668H122.272V53.6647H124.986V51.0668Z" fill="#162833"/>
<path d="M131.466 57.8076C131.01 57.8245 130.556 57.7479 130.131 57.5827C129.706 57.4176 129.319 57.1672 128.993 56.8469C128.371 56.1794 128.025 55.2994 128.025 54.3853C128.025 53.4712 128.371 52.5913 128.993 51.9238C129.491 51.4513 130.115 51.1347 130.789 51.0129C131.463 50.891 132.158 50.9692 132.788 51.2378C133.202 51.4036 133.575 51.6596 133.879 51.9872L133.519 52.5637C133.466 52.6572 133.393 52.7387 133.307 52.8032C133.221 52.8676 133.123 52.9136 133.018 52.9384C132.807 52.9904 132.584 52.958 132.396 52.8481C132.111 52.6857 131.793 52.5928 131.466 52.5771C131.227 52.5666 130.989 52.6061 130.766 52.6931C130.543 52.7801 130.341 52.9127 130.172 53.0825C129.912 53.3352 129.734 53.6608 129.661 54.0167C129.588 54.3727 129.624 54.7423 129.764 55.0775C129.904 55.4126 130.141 55.6977 130.444 55.8954C130.748 56.0932 131.104 56.1944 131.466 56.1858C131.794 56.1753 132.115 56.08 132.396 55.9091C132.581 55.7989 132.802 55.7632 133.012 55.8092C133.115 55.8292 133.212 55.87 133.298 55.9291C133.385 55.9883 133.458 56.0645 133.514 56.1532L133.896 56.7296C133.597 57.0756 133.222 57.3479 132.802 57.5252C132.38 57.7102 131.926 57.8064 131.466 57.8076Z" fill="#162833"/>
<path d="M136.854 57.6865H135.209V51.061H136.854V57.6865ZM139.126 51.4799C139.2 51.3533 139.306 51.2486 139.434 51.1763C139.558 51.1019 139.7 51.0622 139.845 51.061H141.334L139.261 53.9798C139.22 54.0507 139.165 54.1124 139.099 54.1613C139.033 54.2102 138.958 54.2452 138.879 54.2642C139.038 54.3044 139.176 54.4058 139.261 54.5467L141.501 57.6865H140.161C139.98 57.6859 139.802 57.6389 139.644 57.5501C139.488 57.468 139.356 57.3461 139.261 57.1965L137.539 54.5659C137.443 54.4218 137.3 54.3152 137.135 54.2642C137.29 54.204 137.423 54.0982 137.518 53.9606L139.126 51.4799Z" fill="#162833"/>
<path d="M142.524 57.6863V51.0667H144.169L144.126 55.4689C144.173 55.2176 144.254 54.9743 144.37 54.7464L146.284 51.5183C146.358 51.3505 146.496 51.2192 146.666 51.1532C146.889 51.0879 147.12 51.0587 147.352 51.0667H148.554V57.6863H146.909L146.953 52.6385C146.93 52.8555 146.876 53.0682 146.795 53.2707L144.387 57.3173C144.328 57.4237 144.244 57.5136 144.142 57.5787C144.052 57.6447 143.945 57.6822 143.834 57.6863H142.524Z" fill="#162833"/>
<path d="M150.453 57.6864V51.0667H152.097L152.045 55.469C152.091 55.2177 152.173 54.9744 152.288 54.7465L154.202 51.5183C154.24 51.4343 154.294 51.3588 154.362 51.2961C154.429 51.2334 154.508 51.1848 154.595 51.1532C154.817 51.0879 155.048 51.0587 155.28 51.0667H156.482V57.6864H154.845L154.889 52.6385C154.865 52.8556 154.812 53.0683 154.731 53.2707L152.323 57.3175C152.264 57.4238 152.18 57.5137 152.078 57.5788C151.988 57.6449 151.881 57.6824 151.769 57.6864H150.453ZM155.075 49.5756C154.896 49.8152 154.658 50.0039 154.384 50.1233C154.101 50.2615 153.791 50.3344 153.477 50.3365C153.158 50.3346 152.844 50.2632 152.556 50.1271C152.282 50.0097 152.043 49.8214 151.865 49.5814L151.961 48.4803C152.161 48.7042 152.404 48.8852 152.675 49.0126C152.924 49.1391 153.198 49.208 153.477 49.2144C153.751 49.2103 154.02 49.1447 154.265 49.0222C154.536 48.8942 154.779 48.7133 154.979 48.49L155.075 49.5756Z" fill="#162833"/>
<path d="M168.081 56.1838H168.847V57.6865V59.0008H167.917C167.837 59.0099 167.756 59.0014 167.68 58.9758C167.604 58.9503 167.534 58.9083 167.476 58.8529C167.378 58.7023 167.334 58.5227 167.352 58.3437V57.6942H162.322V51.0668H163.953V56.1838H166.441V51.0668H168.077L168.081 56.1838Z" fill="#162833"/>
<path d="M176.246 54.1874C176.254 54.3871 176.185 54.5822 176.055 54.7331C175.995 54.8052 175.92 54.8627 175.835 54.9013C175.751 54.9399 175.658 54.9586 175.565 54.956H171.278C171.373 55.3293 171.594 55.658 171.903 55.8861C172.227 56.121 172.618 56.2426 173.017 56.232C173.311 56.2207 173.598 56.1432 173.858 56.0052C173.995 55.9372 174.145 55.898 174.298 55.8899C174.462 55.8821 174.625 55.9186 174.77 55.9957C174.915 56.0728 175.037 56.1875 175.123 56.328L175.45 56.8238C175.147 57.1387 174.78 57.3839 174.374 57.5425C173.944 57.7201 173.483 57.8109 173.017 57.8096C172.562 57.8264 172.108 57.7499 171.683 57.5848C171.258 57.4196 170.872 57.1691 170.546 56.8488C170.056 56.37 169.719 55.7543 169.581 55.0814C169.443 54.4086 169.509 53.7095 169.771 53.0749C170.033 52.4403 170.479 51.8993 171.051 51.5221C171.623 51.1449 172.295 50.9488 172.979 50.9592C173.561 50.9497 174.136 51.0907 174.648 51.3685C175.131 51.6375 175.528 52.0369 175.796 52.5214C176.084 53.0297 176.239 53.6028 176.246 54.1874ZM171.831 53.7051H174.545C174.452 53.3619 174.247 53.0598 173.964 52.847C173.68 52.6341 173.333 52.5229 172.979 52.531C172.566 52.516 172.162 52.6524 171.842 52.9148C171.521 53.1772 171.307 53.5476 171.239 53.9568H171.258C171.327 53.8716 171.414 53.8041 171.514 53.7599C171.613 53.7158 171.722 53.6963 171.831 53.7032V53.7051Z" fill="#162833"/>
<path d="M181.818 51.0668H183.455V57.6865H181.818V55.0885H179.096V57.6865H177.46V51.0668H179.096V53.6647H181.818V51.0668Z" fill="#162833"/>
<path d="M184.624 52.5944V51.0571H189.939V52.5944H188.104V57.6864H186.465V52.5944H184.624Z" fill="#162833"/>
<path d="M194.639 50.9438C195.036 50.9341 195.429 51.0156 195.79 51.1821C196.151 51.3486 196.469 51.5957 196.719 51.9045C197.257 52.5451 197.526 53.3636 197.527 54.3603C197.561 55.2644 197.245 56.1464 196.645 56.8218C196.361 57.136 196.013 57.3847 195.624 57.5506C195.236 57.7165 194.816 57.7956 194.394 57.7825C194.087 57.7815 193.783 57.7195 193.499 57.6001C193.216 57.4808 192.959 57.3063 192.744 57.0869V60H191.107V51.061H192.148C192.545 51.061 192.744 51.3037 192.744 51.7892C192.982 51.522 193.274 51.3084 193.601 51.1627C193.928 51.017 194.281 50.9423 194.639 50.9438ZM194.208 56.1838C194.434 56.1902 194.659 56.1476 194.868 56.0591C195.076 55.9706 195.263 55.8382 195.416 55.6708C195.737 55.3172 195.907 54.8517 195.891 54.3737C195.91 53.9026 195.744 53.4427 195.427 53.094C195.277 52.932 195.094 52.8042 194.89 52.7191C194.686 52.6339 194.467 52.5934 194.246 52.6001C193.681 52.6001 193.18 52.8794 192.744 53.4379V55.5074C192.915 55.701 193.122 55.8585 193.354 55.9705C193.617 56.1108 193.91 56.1841 194.208 56.1838Z" fill="#162833"/>
</svg>
