<svg width="45" height="47" viewBox="0 0 45 47" fill="none" xmlns="http://www.w3.org/2000/svg">
<path d="M22.2301 38.74H2.45006C2.25964 38.74 2.07109 38.7025 1.89517 38.6296C1.71925 38.5568 1.5594 38.4499 1.42476 38.3153C1.15283 38.0434 1.00006 37.6746 1.00006 37.29V2.45C1.00006 2.06544 1.15283 1.69662 1.42476 1.4247C1.69668 1.15277 2.0655 1 2.45006 1H42.5501C42.9346 1 43.3034 1.15277 43.5754 1.4247C43.8473 1.69662 44.0001 2.06544 44.0001 2.45V37.29C44.0001 37.6746 43.8473 38.0434 43.5754 38.3153C43.3034 38.5872 42.9346 38.74 42.5501 38.74H41.1001" stroke="#2D9CDB" stroke-width="2" stroke-linecap="round" stroke-linejoin="round"/>
<path d="M1.00006 8.97998H44.0001" stroke="#2D9CDB" stroke-width="2" stroke-linecap="round" stroke-linejoin="round"/>
<path d="M4.99009 6.08002C5.59208 6.08002 6.08009 5.59201 6.08009 4.99002C6.08009 4.38803 5.59208 3.90002 4.99009 3.90002C4.38809 3.90002 3.90009 4.38803 3.90009 4.99002C3.90009 5.59201 4.38809 6.08002 4.99009 6.08002Z" fill="#2D9CDB"/>
<path d="M8.62009 6.08002C9.22208 6.08002 9.71009 5.59201 9.71009 4.99002C9.71009 4.38803 9.22208 3.90002 8.62009 3.90002C8.0181 3.90002 7.53009 4.38803 7.53009 4.99002C7.53009 5.59201 8.0181 6.08002 8.62009 6.08002Z" fill="#2D9CDB"/>
<path d="M12.25 6.08002C12.852 6.08002 13.34 5.59201 13.34 4.99002C13.34 4.38803 12.852 3.90002 12.25 3.90002C11.648 3.90002 11.16 4.38803 11.16 4.99002C11.16 5.59201 11.648 6.08002 12.25 6.08002Z" fill="#2D9CDB"/>
<path d="M39.6501 14.0601H15.5201V18.4101H39.6501V14.0601Z" stroke="#2D9CDB" stroke-width="2" stroke-linecap="round" stroke-linejoin="round"/>
<path d="M22.2301 32.94H15.5201V22.77H39.6501V30.03" stroke="#2D9CDB" stroke-width="2" stroke-linecap="round" stroke-linejoin="round"/>
<path d="M5.35004 22.77H11.16" stroke="#2D9CDB" stroke-width="2" stroke-linecap="round" stroke-linejoin="round"/>
<path d="M5.35004 14.0601H11.16" stroke="#2D9CDB" stroke-width="2" stroke-linecap="round" stroke-linejoin="round"/>
<path d="M26.58 26.4V42.37L30.93 38.74L35.29 46L38.92 43.82L34.56 36.56L39.65 35.11L26.58 26.4Z" stroke="#EE222A" stroke-width="2" stroke-linecap="round" stroke-linejoin="round"/>
</svg>
