<svg width="80" height="60" viewBox="0 0 80 60"  xmlns="http://www.w3.org/2000/svg">
<path d="M12.732 36.4808C13.1023 37.7622 13.4082 39.0673 13.853 40.3212C15.7427 45.6455 19.0374 49.8776 23.5508 53.1319C24.9327 54.1294 25.6577 55.4083 25.2875 57.1708C24.7013 59.9637 21.8231 60.5117 20.1043 59.5838C17.438 58.1334 14.9574 56.3512 12.7192 54.2779C6.60666 48.6435 2.70518 41.6973 0.882351 33.5117C0.107827 29.9434 -0.158878 26.2794 0.0904862 22.6331C0.347585 18.5732 1.04561 14.5724 2.76946 10.87C5.46899 5.05544 9.96822 1.45553 16.1746 0.30813C26.2657 -1.55689 35.5393 5.25391 37.3775 15.0692C39.4253 26.0057 32.4387 35.131 22.98 37.1392C19.7804 37.814 16.4617 37.5869 13.3786 36.4821C13.2398 36.4335 13.0958 36.4032 12.9544 36.3651L12.732 36.4808Z" fill="#E1F5FA"/>
<path d="M54.9874 36.3213C55.2535 37.3547 55.4463 38.2605 55.7176 39.1414C57.4591 44.7659 60.6631 49.3145 65.3297 52.7871C66.2386 53.4668 67.1707 54.1321 67.5152 55.3561C68.1953 57.7739 66.3582 60.1917 63.9156 59.988C63.3015 59.9492 62.7023 59.7785 62.157 59.487C52.0567 53.6391 45.7103 44.9254 43.1177 33.346C42.34 29.8738 42.124 26.3332 42.3464 22.7874C42.6215 18.3172 43.4095 13.9326 45.4857 9.94891C48.0967 4.94106 52.1797 1.68707 57.6189 0.46568C68.2171 -1.91269 77.7175 5.10146 79.6407 15.0725C81.6243 25.3748 75.1707 34.9592 65.556 37.076C62.3112 37.7886 59.1127 37.5808 55.9528 36.5803C55.6957 36.4962 55.4322 36.4396 54.9874 36.3213Z" fill="#E1F5FA"/>
</svg>
