<svg xmlns="http://www.w3.org/2000/svg" xmlns:xlink="http://www.w3.org/1999/xlink"><symbol id="arrow-bottom-right" viewBox="0 0 16 17"><path d="M3.63 4.34a.563.563 0 01.739-.05l.057.05 7.955 7.955a.563.563 0 01-.738.846l-.057-.05L3.63 5.134a.563.563 0 010-.795z"/><path d="M11.408 6.29a.562.562 0 011.118-.085l.007.083.013 6.403a.563.563 0 01-.48.558l-.083.006-6.404-.013a.562.562 0 01-.08-1.12l.082-.005 5.84.011-.013-5.838z"/></symbol><symbol id="arrow-down" viewBox="0 0 18 18"><g id="Iconly/Light-Outline/Arrow - Down Circle"><g id="Arrow - Down Circle" fill-rule="evenodd" clip-rule="evenodd" fill="#162833"><path id="Fill 1" d="M9 2.625A6.382 6.382 0 002.625 9 6.382 6.382 0 009 15.375 6.382 6.382 0 0015.375 9 6.382 6.382 0 009 2.625zM9 16.5c-4.136 0-7.5-3.364-7.5-7.5S4.864 1.5 9 1.5s7.5 3.364 7.5 7.5-3.364 7.5-7.5 7.5z"/><path id="Fill 3" d="M9 11.095a.56.56 0 01-.398-.165L5.998 8.315a.563.563 0 11.798-.794L9 9.736l2.205-2.215a.563.563 0 11.797.794L9.398 10.93a.56.56 0 01-.398.165z"/></g></g></symbol><symbol id="arrow-right" viewBox="0 0 18 18"><path d="M3 8.794c0-.284.212-.52.486-.557l.076-.005h11.25a.562.562 0 01.077 1.12l-.076.005H3.563A.563.563 0 013 8.794z"/><path d="M9.878 4.675a.563.563 0 01.73-.852l.064.054 4.537 4.518c.201.2.22.514.055.734l-.054.064-4.538 4.518a.563.563 0 01-.848-.734l.054-.063 4.137-4.12-4.137-4.12z"/></symbol><symbol id="calendar" viewBox="0 0 18 18"><path d="M3.062 6.936h11.882M11.961 9.54h.007m-2.965 0h.006m-2.97 0h.006m5.916 2.59h.007m-2.965 0h.006m-2.97 0h.006M11.696 2v2.194M6.31 2v2.194" stroke="#2D9CDB" stroke-width="1.5" stroke-linecap="round" stroke-linejoin="round"/><path fill-rule="evenodd" clip-rule="evenodd" d="M11.825 3.053H6.181C4.223 3.053 3 4.143 3 6.148v6.033c0 2.037 1.223 3.152 3.18 3.152h5.64c1.963 0 3.18-1.097 3.18-3.101V6.148c.006-2.005-1.21-3.095-3.175-3.095z" stroke="#2D9CDB" stroke-width="1.5" stroke-linecap="round" stroke-linejoin="round"/></symbol><symbol id="close" viewBox="0 0 16 16"><path d="M9.797 6.196L6.203 9.79m3.595.002L6.2 6.195" stroke="#2D9CDB" stroke-width="1.5" stroke-linecap="round" stroke-linejoin="round"/><path fill-rule="evenodd" clip-rule="evenodd" d="M11.25 1.063h-6.5c-2.267 0-3.687 1.604-3.687 3.874v6.126c0 2.27 1.414 3.875 3.686 3.875h6.501c2.273 0 3.688-1.604 3.688-3.875V4.937c0-2.27-1.415-3.874-3.687-3.874z" stroke="#2D9CDB" stroke-width="1.5" stroke-linecap="round" stroke-linejoin="round"/></symbol><symbol id="eye" viewBox="0 0 16 14"><path fill-rule="evenodd" clip-rule="evenodd" d="M10.371 7.04a2.371 2.371 0 11-4.742-.001 2.371 2.371 0 014.742 0z" stroke="#2D9CDB" stroke-width="1.5" stroke-linecap="round" stroke-linejoin="round"/><path fill-rule="evenodd" clip-rule="evenodd" d="M7.998 12.516c2.856 0 5.469-2.053 6.94-5.476-1.471-3.423-4.084-5.477-6.94-5.477h.003c-2.855 0-5.468 2.054-6.938 5.477 1.47 3.423 4.083 5.476 6.939 5.476h-.004z" stroke="#2D9CDB" stroke-width="1.5" stroke-linecap="round" stroke-linejoin="round"/></symbol><symbol id="info" viewBox="0 0 46 45"><path d="M34.563 31.467l8.801 8.81a2.179 2.179 0 01-2.376 3.557 2.179 2.179 0 01-.707-.474l-8.81-8.8m-9.021.944c8.939-1.73 14.784-10.378 13.054-19.318-1.73-8.94-10.378-14.784-19.318-13.054C7.246 4.862 1.402 13.51 3.132 22.449c1.73 8.94 10.378 14.784 19.317 13.055z" stroke="#2D9CDB" stroke-width="2" stroke-linecap="round" stroke-linejoin="round"/><path d="M19.76 38.63a18.874 18.874 0 0018.874-18.874" stroke="#EE222A" stroke-width="2" stroke-linecap="round" stroke-linejoin="round"/><path d="M20.768 19.299c2.012-.915 2.195-3.513 2.442-5.307a4.912 4.912 0 00-.31-2.927A3.54 3.54 0 0020.831 9.4a4.74 4.74 0 00-3.02 0 3.54 3.54 0 00-2.067 1.665 4.987 4.987 0 00-.32 2.9c.228 1.83.43 4.419 2.452 5.288" stroke="#2D9CDB" stroke-width="2" stroke-linecap="round" stroke-linejoin="round"/><path d="M17.015 18.704v1.73l-3.66 1.39a4.327 4.327 0 00-2.744 3.476l-.238 1.766m11.254-8.362v1.73l3.66 1.39A4.327 4.327 0 0128.03 25.3l.238 1.766m-11.252-6.633c0 1.73 2.305 3.175 2.305 3.175s2.306-1.446 2.306-3.175" stroke="#2D9CDB" stroke-width="2" stroke-linecap="round" stroke-linejoin="round"/></symbol><symbol id="job" viewBox="0 0 46 46"><path d="M20.853 28.693s10.063.284 18.427-10.63c0 0-3.097-.332-4.25-1.416 5.666-.714 9.213-5.677 9.926-15.633 0 0-15.632-.703-22.686 7.816a8.461 8.461 0 00-2.13 5.667l-1.417-2.13a17.792 17.792 0 00-3.546 12.76m-1.417 8.53s7.757-14.177 17.723-21.974" stroke="#2D9CDB" stroke-width="2" stroke-linecap="round" stroke-linejoin="round"/><path d="M27.937 1.034H1c5.295 15.3 1.798 31.089.46 36.013a6.263 6.263 0 003.448 7.445c.78.337 1.622.51 2.472.508v0a6.399 6.399 0 006.38-6.38h23.39A6.39 6.39 0 0130.77 45H7.38m22.686-10.63a25.137 25.137 0 001.417-8.51" stroke="#2D9CDB" stroke-width="2" stroke-linecap="round" stroke-linejoin="round"/><path d="M7.379 8.85h9.926m-9.211 5.667h4.953m-4.953 5.676h3.537" stroke="#EE222A" stroke-width="2" stroke-linecap="round" stroke-linejoin="round"/></symbol><symbol id="logo" viewBox="0 0 240 60"><path d="M28.71 19.215c5.286 0 9.571-4.301 9.571-9.607C38.281 4.3 33.996 0 28.711 0c-5.286 0-9.57 4.301-9.57 9.608 0 5.306 4.284 9.607 9.57 9.607z" fill="#2D9CDB"/><path d="M47.85 19.215H9.57a9.551 9.551 0 00-6.767 2.814A9.627 9.627 0 000 28.823a9.627 9.627 0 002.803 6.794A9.551 9.551 0 009.57 38.43h9.57v9.608a9.627 9.627 0 002.803 6.793 9.552 9.552 0 006.767 2.814 9.552 9.552 0 006.768-2.814 9.627 9.627 0 002.803-6.794V38.43h9.57a9.551 9.551 0 006.767-2.814 9.627 9.627 0 002.803-6.794 9.627 9.627 0 00-2.803-6.794 9.551 9.551 0 00-6.767-2.814z" fill="#2D9CDB"/><path d="M47.851 19.215h-28.71v28.823a9.627 9.627 0 002.803 6.794 9.551 9.551 0 006.767 2.814 9.551 9.551 0 006.767-2.814 9.627 9.627 0 002.803-6.794v-9.607h9.57a9.551 9.551 0 006.767-2.814 9.627 9.627 0 002.803-6.794 9.626 9.626 0 00-2.803-6.794 9.551 9.551 0 00-6.767-2.814z" fill="#EE222A"/><path d="M19.14 28.823v19.215a9.627 9.627 0 002.804 6.794 9.551 9.551 0 006.767 2.814 9.551 9.551 0 006.767-2.814 9.627 9.627 0 002.803-6.794v-9.607l-19.14-19.215v9.607z" fill="#9C2066"/><path d="M87.68 38.123v-9.38h-3.271l-5.635 7.922a3.014 3.014 0 01-1.19 1.153 3.44 3.44 0 01-1.488.31h-3.9l6.526-9.19c.574-.853 1.468-1.324 2.659-1.404v-.035l-.56-.02a4.784 4.784 0 01-2.013-.516 7.312 7.312 0 01-1.898-1.345 6.556 6.556 0 01-1.417-2.114 6.677 6.677 0 01-.551-2.678c0-2.296.773-4.188 2.318-5.675s3.46-2.23 5.742-2.23H92.4v25.202h-4.72zm0-20.624h-4.445a3.644 3.644 0 00-2.545.93 3.074 3.074 0 00-1.024 2.39 3.129 3.129 0 001.024 2.38c.679.638 1.58.984 2.511.96h4.479V17.5zm32.424 7.254a6.273 6.273 0 013.763 2.127 5.973 5.973 0 011.451 3.988 6.758 6.758 0 01-2.529 5.436c-1.684 1.409-3.868 2.113-6.551 2.113a11.874 11.874 0 01-4.743-1.01 11.511 11.511 0 01-3.85-2.59l1.103-1.757a1.806 1.806 0 011.171-.792 1.966 1.966 0 011.488.3 8.013 8.013 0 004.637 1.405c1.493 0 2.672-.31 3.535-.932a2.97 2.97 0 001.294-2.563 2.892 2.892 0 00-1.416-2.548c-.946-.61-2.182-.914-3.709-.913h-2.345v-4.212h2.327c1.2 0 2.168-.244 2.904-.73a2.317 2.317 0 001.102-2.047c0-.995-.341-1.733-1.024-2.213-.681-.479-1.573-.713-2.651-.713-1.365 0-2.887.527-4.566 1.581a1.618 1.618 0 01-1.26.221 1.575 1.575 0 01-1.068-.87l-.98-1.828a10.195 10.195 0 013.692-2.617 11.668 11.668 0 014.707-1.001c2.193 0 3.996.633 5.407 1.899 1.411 1.265 2.118 2.934 2.119 5.005a5.382 5.382 0 01-1.095 3.363 5.194 5.194 0 01-2.913 1.898zm24.321 9.329h2.504l-.019 4.036V41.7l-2.536-.019c-1.039 0-1.558-.597-1.558-1.79v-1.769h-12.493v1.774c0 1.207-.624 1.81-1.872 1.81h-2.222v-7.625h1.102c.593-.246 1.141-.758 1.644-1.537.503-.779.812-1.827.927-3.145l.7-9.347h13.823v14.03zm-11.706 0h7.245v-9.907h-5.197l-.402 5.392c-.139 1.938-.688 3.443-1.646 4.515zm18.811 1.739c-1.762-1.756-2.643-3.993-2.643-6.71s.881-4.954 2.643-6.712c1.761-1.756 4.006-2.634 6.735-2.634 2.73 0 4.976.878 6.738 2.634 1.761 1.76 2.642 3.996 2.643 6.712.001 2.716-.88 4.953-2.643 6.71-1.761 1.757-4.007 2.635-6.738 2.635-2.73 0-4.975-.879-6.735-2.635zm3.21-10.241c-.927.926-1.39 2.103-1.39 3.531 0 1.429.463 2.605 1.39 3.53.928.926 2.103 1.39 3.525 1.39 1.423 0 2.599-.464 3.528-1.39.926-.925 1.39-2.101 1.39-3.53 0-1.428-.464-2.605-1.39-3.532-.928-.924-2.103-1.387-3.528-1.387-1.424 0-2.599.463-3.525 1.387zm26.328-5.832c2.31 0 4.199.872 5.669 2.617 1.47 1.745 2.205 3.976 2.205 6.693 0 2.717-.802 4.954-2.406 6.711-1.603 1.758-3.645 2.636-6.124 2.635-1.681 0-3.18-.633-4.498-1.899v7.942h-4.472V20.063h2.835c1.086 0 1.628.662 1.627 1.987v.017c1.458-1.546 3.18-2.32 5.164-2.32zm-1.171 14.283a4.288 4.288 0 003.29-1.398c.864-.932 1.295-2.112 1.294-3.539-.001-1.427-.421-2.59-1.26-3.488a4.227 4.227 0 00-3.219-1.345c-1.54 0-2.906.762-4.096 2.285v5.64a5.34 5.34 0 001.663 1.264 4.936 4.936 0 002.326.58h.002zm14.1 1.79c-1.761-1.756-2.642-3.993-2.642-6.71s.881-4.954 2.642-6.712c1.761-1.756 4.007-2.634 6.737-2.634 2.731 0 4.976.878 6.736 2.634 1.763 1.76 2.644 3.996 2.643 6.712-.001 2.716-.882 4.953-2.643 6.71-1.761 1.757-4.006 2.635-6.736 2.635-2.729 0-4.975-.879-6.737-2.635zm3.212-10.241c-.928.926-1.392 2.103-1.392 3.531 0 1.429.464 2.605 1.392 3.53.926.926 2.101 1.39 3.525 1.39s2.6-.464 3.526-1.39c.926-.925 1.39-2.101 1.391-3.53.002-1.428-.462-2.605-1.391-3.532-.929-.924-2.104-1.387-3.526-1.387-1.421 0-2.596.463-3.525 1.387zm29.474 3.108a4.5 4.5 0 012.345 1.538c.606.752.928 1.694.911 2.66a4.807 4.807 0 01-1.671 3.76c-1.114.984-2.523 1.476-4.226 1.477h-10.131V20.082h9.378c1.704 0 3.108.465 4.211 1.395a4.498 4.498 0 011.654 3.61 3.709 3.709 0 01-.681 2.197 3.914 3.914 0 01-1.79 1.404zm-8.311-4.69v3.392h4.594a1.9 1.9 0 001.323-.485 1.553 1.553 0 00.532-1.203 1.581 1.581 0 00-.525-1.22 1.86 1.86 0 00-1.313-.484h-4.611zm5.214 10.224a1.936 1.936 0 001.382-.526 1.726 1.726 0 00.561-1.301 1.674 1.674 0 00-.551-1.282 1.945 1.945 0 00-1.375-.509h-5.231v3.618h5.214zm15.592 3.365a2.977 2.977 0 01-3.776.46 2.998 2.998 0 01-1.232-1.609 2.998 2.998 0 011.411-3.546 2.975 2.975 0 013.735.722c.442.537.683 1.212.683 1.91a2.797 2.797 0 01-.821 2.064zm-3.763-7.054a53.634 53.634 0 01-.647-7.676v-9.942h4.655v9.951a52.822 52.822 0 01-.649 7.66l-3.359.007zM78.755 51.061h1.2v6.626h-1.637V53.76a1.74 1.74 0 01.085-.458l-1.664 3.338a.665.665 0 01-.66.361.676.676 0 01-.668-.36l-1.663-3.339c.05.148.078.302.084.458v3.925h-1.637V51.06h1.206c.215-.01.43.032.626.121a1.1 1.1 0 01.421.47l1.531 2.883c.066.186.102.38.11.577.003-.197.037-.391.1-.577l1.49-2.882c.085-.19.227-.35.406-.457.209-.1.439-.146.67-.135zm9.264 3.126a.79.79 0 01-.192.546.614.614 0 01-.49.223H83.05c.095.373.317.702.626.93a1.81 1.81 0 001.114.346 1.95 1.95 0 00.84-.227c.138-.068.287-.107.44-.115a.891.891 0 01.452.096.909.909 0 01.373.342l.328.496c-.303.314-.67.56-1.076.718a3.53 3.53 0 01-1.357.268 3.343 3.343 0 01-2.471-.961 3.434 3.434 0 01-.775-3.774 3.427 3.427 0 011.28-1.553 3.407 3.407 0 011.928-.563 3.385 3.385 0 011.669.41 2.96 2.96 0 011.158 1.152 3.47 3.47 0 01.44 1.666zm-4.418-.482h2.722a1.592 1.592 0 00-1.566-1.174 1.738 1.738 0 00-1.148.384 1.73 1.73 0 00-.597 1.038h.019a.676.676 0 01.57-.25v.002zm11.293 2.498h.917v2.798h-.93c-.383 0-.575-.22-.575-.657v-.65H89.72v.65c0 .443-.229.664-.687.664h-.815v-2.805h.402c.253-.121.463-.317.603-.561.205-.35.322-.747.34-1.153l.257-3.428h5.072l.002 5.142zm-4.295 0h2.658V52.57h-1.914l-.147 1.978c-.046.709-.247 1.262-.597 1.656zm6.442 1.484v-6.62h1.645l-.052 4.402a2.68 2.68 0 01.243-.723l1.914-3.228a.694.694 0 01.383-.365c.223-.065.455-.094.687-.086h1.2v6.62h-1.642l.044-5.048c-.025.216-.079.43-.161.632l-2.404 4.047a.718.718 0 01-.243.26.56.56 0 01-.308.108h-1.305zm13.663-1.503h.766V59h-.93a.553.553 0 01-.441-.148.808.808 0 01-.124-.51v-.649h-5.028v-6.627h1.631v5.117h2.488v-5.117h1.636l.002 5.117zm2.004 1.503v-6.62h1.642l-.051 4.402a2.65 2.65 0 01.245-.723l1.914-3.228a.7.7 0 01.392-.365c.223-.065.455-.094.687-.086h1.2v6.62h-1.644l.046-5.048c-.025.216-.079.43-.161.632l-2.408 4.047a.708.708 0 01-.243.26.572.572 0 01-.308.108h-1.311zm12.278-6.62h1.637v6.62h-1.637v-2.598h-2.714v2.598h-1.636v-6.62h1.636v2.598h2.714v-2.598zm6.48 6.741a3.342 3.342 0 01-2.473-.961 3.611 3.611 0 010-4.923 3.506 3.506 0 013.795-.686 3.02 3.02 0 011.091.75l-.36.576a.784.784 0 01-.501.374.836.836 0 01-.622-.09 2.078 2.078 0 00-.93-.27 1.717 1.717 0 00-1.294.505 1.81 1.81 0 00.272 2.812c.304.198.66.3 1.022.29.328-.01.649-.105.93-.276a.85.85 0 01.902.02.78.78 0 01.216.224l.382.577a2.977 2.977 0 01-1.094.795 3.347 3.347 0 01-1.336.283zm5.388-.121h-1.645V51.06h1.645v6.626zm2.272-6.207a.828.828 0 01.308-.304.812.812 0 01.411-.115h1.489l-2.073 2.919a.599.599 0 01-.382.284c.159.04.297.142.382.283l2.24 3.14h-1.34a1.065 1.065 0 01-.517-.137 1.013 1.013 0 01-.383-.353l-1.722-2.631a.753.753 0 00-.404-.302.831.831 0 00.383-.303l1.608-2.481zm3.398 6.206v-6.62h1.645l-.043 4.403c.047-.251.128-.495.244-.723l1.914-3.228a.691.691 0 01.382-.365 2.18 2.18 0 01.686-.086h1.202v6.62h-1.645l.044-5.048c-.023.216-.077.43-.158.632l-2.408 4.046a.729.729 0 01-.245.262.555.555 0 01-.308.107h-1.31zm7.929 0v-6.62h1.644l-.052 4.403a2.68 2.68 0 01.243-.723l1.914-3.228a.686.686 0 01.393-.365 2.17 2.17 0 01.685-.086h1.202v6.62h-1.637l.044-5.048c-.024.217-.077.43-.158.632l-2.408 4.047a.73.73 0 01-.245.26.554.554 0 01-.309.108h-1.316zm4.622-8.11a1.72 1.72 0 01-.691.547 2.1 2.1 0 01-.907.214 2.185 2.185 0 01-.921-.21 1.689 1.689 0 01-.691-.546l.096-1.1c.2.223.443.404.714.532.249.126.523.195.802.201.274-.004.543-.07.788-.192a2.25 2.25 0 00.714-.532l.096 1.086zm13.006 6.608h.766V59h-.93a.549.549 0 01-.441-.148.789.789 0 01-.124-.51v-.649h-5.03v-6.627h1.631v5.117h2.488v-5.117h1.636l.004 5.117zm8.165-1.997a.789.789 0 01-.191.546.62.62 0 01-.49.223h-4.287c.095.373.316.702.625.93.324.235.715.357 1.114.346.294-.011.581-.089.841-.227.137-.068.287-.107.44-.115a.913.913 0 01.825.438l.327.496c-.303.315-.67.56-1.076.718-.43.178-.891.269-1.357.268a3.344 3.344 0 01-2.471-.961 3.438 3.438 0 01.505-5.327 3.409 3.409 0 011.928-.563 3.384 3.384 0 011.669.41c.483.269.88.668 1.148 1.152.288.509.443 1.082.45 1.666zm-4.415-.482h2.714a1.582 1.582 0 00-1.566-1.174 1.707 1.707 0 00-1.74 1.426h.019a.686.686 0 01.573-.254v.002zm9.987-2.638h1.637v6.62h-1.637v-2.598h-2.722v2.598h-1.636v-6.62h1.636v2.598h2.722v-2.598zm2.806 1.527v-1.537h5.315v1.537h-1.835v5.092h-1.639v-5.092h-1.841zm10.015-1.65a2.595 2.595 0 012.08.96c.538.641.807 1.46.808 2.456a3.508 3.508 0 01-.882 2.462 2.92 2.92 0 01-2.251.96 2.328 2.328 0 01-1.65-.695V60h-1.637v-8.939h1.041c.397 0 .596.243.596.728a2.522 2.522 0 011.895-.845zm-.431 5.24a1.578 1.578 0 001.208-.513 1.84 1.84 0 00.475-1.297 1.794 1.794 0 00-.464-1.28 1.54 1.54 0 00-1.181-.494c-.565 0-1.066.28-1.502.838v2.07c.171.193.378.35.61.462.263.14.556.214.854.214z" fill="#162833"/></symbol><symbol id="marker" viewBox="0 0 46 59"><g xmlns="http://www.w3.org/2000/svg" id="Page-1" fill="none" fill-rule="evenodd"><g id="057---Hotel-Location" fill-rule="nonzero" transform="translate(-1 -1)"><path id="Shape" d="M47 24a22.961 22.961 0 01-12.16 20.28l-.01.01L24 59 13.17 44.29l-.01-.01C3.231 38.974-1.398 27.261 2.22 16.601 5.84 5.941 16.643-.533 27.75 1.302 38.855 3.137 47.002 12.742 47 24z" fill="#e54c3c" data-original="#e54c3c"/><path id="Shape" d="M29 60H19a1 1 0 010-2h10a1 1 0 010 2zm14-36a18.843 18.843 0 01-4.03 11.68A2 2 0 0037 34H11a2 2 0 00-1.97 1.68A18.995 18.995 0 1143 24z" fill="#802f34" data-original="#802f34"/><path id="Rectangle-path" d="M19 12h10v23H19z" fill="#efc319" data-original="#efc319" class="hovered-path"/><path id="Shape" d="M13 18h6v17h-8V20a2 2 0 012-2z" fill="#f19b1f" data-original="#f19b1f"/><g fill="#285680"><path id="Shape" d="M25 18h-2a1 1 0 010-2h2a1 1 0 010 2zm0 4h-2a1 1 0 010-2h2a1 1 0 010 2zm0 4h-2a1 1 0 010-2h2a1 1 0 010 2zm0 4h-2a1 1 0 010-2h2a1 1 0 010 2z" data-original="#285680"/><circle id="Oval" cx="15" cy="22" r="1" data-original="#285680"/><circle id="Oval" cx="15" cy="26" r="1" data-original="#285680"/><circle id="Oval" cx="15" cy="30" r="1" data-original="#285680"/></g><path id="Shape" d="M29 18h8v17h-6a2 2 0 01-2-2z" fill="#f19b1f" transform="rotate(180 33 26.5)" data-original="#f19b1f"/><circle id="Oval" cx="33" cy="22" fill="#285680" r="1" data-original="#285680"/><circle id="Oval" cx="33" cy="26" fill="#285680" r="1" data-original="#285680"/><circle id="Oval" cx="33" cy="30" fill="#285680" r="1" data-original="#285680"/><path id="Shape" d="M31 13H17a1 1 0 010-2h14a1 1 0 010 2zm7.97 22.68A18.927 18.927 0 0129 42.33V38H19v4.33a18.927 18.927 0 01-9.97-6.65A2 2 0 0111 34h26a2 2 0 011.97 1.68z" fill="#f2d45b" data-original="#f2d45b"/><path id="Shape" d="M24 38v5a18.74 18.74 0 01-5-.67V38z" fill="#2c3e50" data-original="#2c3e50"/><path id="Shape" d="M29 38v4.33a18.74 18.74 0 01-5 .67v-5z" fill="#35495e" data-original="#35495e"/><path id="Shape" d="M30 39H18a1 1 0 010-2h12a1 1 0 010 2z" fill="#efc319" data-original="#efc319" class="hovered-path"/></g></g></symbol><symbol id="medium-block-icon1" viewBox="0 0 45 47"><path d="M14.61 30.1a6.22 6.22 0 00-2.27 5.74M15.24 46h2.18v-2.9c0-3.2-2.18-7.26-5.08-7.26S7.26 39.9 7.26 43.1V46h2.18m20.81-15.95c2.57 1.15 2.41 7.24 2.41 7.24v1.45m0 7.26a3.63 3.63 0 100-7.26 3.63 3.63 0 000 7.26z" stroke="#EE222A" stroke-width="2" stroke-linecap="round" stroke-linejoin="round"/><path d="M26.13 26.4c5.08-2.17 5.61-8.77 6.16-13.29.3-2.43.39-5.06-.79-7.3a9 9 0 00-5.21-4.19 11.89 11.89 0 00-7.58 0 9 9 0 00-5.21 4.19c-1.18 2.24-1.09 4.87-.79 7.3.55 4.52 1.08 11.12 6.16 13.29" stroke="#2D9CDB" stroke-width="2" stroke-linecap="round" stroke-linejoin="round"/><path d="M16.69 25v4.35L7.51 32.8c-3.73 1.43-5.39 4.78-5.92 8.74L1 46m27.31-21v4.35l9.18 3.49c3.73 1.43 5.39 4.78 5.92 8.74L44 46M16 11.16c7.26 0 8.71-1.45 9.43-3.63 0 0 0 3.63 3.63 3.63M16.69 29.31c0 4.35 5.81 8 5.81 8s5.81-3.63 5.81-8" stroke="#2D9CDB" stroke-width="2" stroke-linecap="round" stroke-linejoin="round"/></symbol><symbol id="medium-block-icon2" viewBox="0 0 45 47"><path d="M12.79 40.158l1.39-5.08m18.03 5.08l-1.39-5.08m-20.8-5.81l-3.47 1.45L1 45.238l11.79-5.08 9.71 5.08 9.71-5.08L44 45.238l-5.55-14.52-3.47-1.45" stroke="#2D9CDB" stroke-width="2" stroke-linecap="round" stroke-linejoin="round"/><path d="M37 14.758c0 10.16-14.5 21.77-14.5 21.77S8 24.918 8 14.758a14.52 14.52 0 0129 0v0z" stroke="#2D9CDB" stroke-width="2" stroke-linecap="round" stroke-linejoin="round"/><path d="M22.22 20.448l6.66-7.87a1 1 0 000-1.17.941.941 0 00-1.33-.17l-6.38 5.41a.291.291 0 01-.42 0l-3.1-1.95a1.15 1.15 0 00-1.42.16v0a1.15 1.15 0 00-.05 1.57l3.57 4a1.63 1.63 0 002.47.02v0z" stroke="#EE222A" stroke-width="2" stroke-linecap="round" stroke-linejoin="round"/></symbol><symbol id="medium-block-icon3" viewBox="0 0 42 47"><path d="M3 30a21.67 21.67 0 007.23 8.68L20.6 46 31 38.71a21.741 21.741 0 009.24-17.8V6.08A43.07 43.07 0 0120.6 1 43.08 43.08 0 011 6.08v10.16A10.16 10.16 0 0011.16 26.4H17v7.26h7.26V26.4h7.25v-2.9" stroke="#2D9CDB" stroke-width="2" stroke-linecap="round" stroke-linejoin="round"/><path d="M31.48 19.14h-7.25v-7.25h-7.26v7.25H9.71v2.91" stroke="#EE222A" stroke-width="2" stroke-linecap="round" stroke-linejoin="round"/></symbol><symbol id="medium-block-icon4" viewBox="0 0 45 47"><path d="M22.23 38.74H2.45A1.45 1.45 0 011 37.29V2.45A1.45 1.45 0 012.45 1h40.1A1.45 1.45 0 0144 2.45v34.84a1.45 1.45 0 01-1.45 1.45H41.1M1 8.98h43" stroke="#2D9CDB" stroke-width="2" stroke-linecap="round" stroke-linejoin="round"/><path d="M4.99 6.08a1.09 1.09 0 100-2.18 1.09 1.09 0 000 2.18zm3.63 0a1.09 1.09 0 100-2.18 1.09 1.09 0 000 2.18zm3.63 0a1.09 1.09 0 100-2.18 1.09 1.09 0 000 2.18z" fill="#2D9CDB"/><path d="M39.65 14.06H15.52v4.35h24.13v-4.35zM22.23 32.94h-6.71V22.77h24.13v7.26m-34.3-7.26h5.81m-5.81-8.71h5.81" stroke="#2D9CDB" stroke-width="2" stroke-linecap="round" stroke-linejoin="round"/><path d="M26.58 26.4v15.97l4.35-3.63L35.29 46l3.63-2.18-4.36-7.26 5.09-1.45-13.07-8.71z" stroke="#EE222A" stroke-width="2" stroke-linecap="round" stroke-linejoin="round"/></symbol><symbol id="medium-block-icon5" viewBox="0 0 46 47"><path d="M6.81 4.63c0-2 1.3-3.63 2.9-3.63 1.6 0 2.9 1.62 2.9 3.63s-1.3 3.63-2.9 3.63m9.16-3.63c0-2 1.3-3.63 2.9-3.63 1.6 0 2.91 1.62 2.91 3.63s-1.3 3.63-2.91 3.63m9.17-3.63c0-2 1.3-3.63 2.9-3.63 1.6 0 2.9 1.62 2.9 3.63s-1.3 3.63-2.9 3.63M20.32 4.63h-7.71" stroke="#2D9CDB" stroke-width="2" stroke-linecap="round" stroke-linejoin="round"/><path d="M8.26 4.63H1v34.84h16.69m14.7-34.84h-7.71M41.82 20.6V4.63h-5.08M9.71 13.34h32.11" stroke="#2D9CDB" stroke-width="2" stroke-linecap="round" stroke-linejoin="round"/><path d="M33.39 46C39.802 46 45 40.802 45 34.39c0-6.412-5.198-11.61-11.61-11.61-6.412 0-11.61 5.198-11.61 11.61 0 6.412 5.198 11.61 11.61 11.61z" stroke="#EE222A" stroke-width="2" stroke-linecap="round" stroke-linejoin="round"/><path d="M33.39 28.58v5.81h5.8" stroke="#EE222A" stroke-width="2" stroke-linecap="round" stroke-linejoin="round"/></symbol><symbol id="medium-block-icon6" viewBox="0 0 46 48"><path d="M10.996 14.061v-1.45a11.42 11.42 0 0111.57-11.61c6.6 0 12.33 5.08 12.33 11.61v1.45m-16.69 15.25c-2.94-1.95-4.35-6.32-4.35-9.8v-2.51m18.14 0v2.54c0 3.75-1.64 7.81-5.08 9.59" stroke="#2D9CDB" stroke-width="2" stroke-linecap="round" stroke-linejoin="round"/><path d="M14.576 12.611c9.58 0 11.61-2.17 13.07-4.35 0 0 0 4.35 3.63 4.35m-14.52 15.97v2.9m11.61-2.9v2.9m15.7 14.52s1-6.53-4.81-9.44l-7.26-3.62m-30.93 13.06s-1-6.53 4.8-9.44l7.26-3.62m0 0l-1.45 8.71a15.19 15.19 0 008.71-6.54 5.25 5.25 0 01-3.63-3.63m15.24 1.46l1.45 8.71a15.19 15.19 0 01-8.71-6.54 5.25 5.25 0 003.63-3.63" stroke="#2D9CDB" stroke-width="2" stroke-linecap="round" stroke-linejoin="round"/><path d="M19.476 46.001c.64-2.83 1.63-5.81 1.63-5.81-2.17-2.17-.72-5.08-.72-5.08a7.61 7.61 0 004.35 0s1.45 2.89-.74 5.08c0 0 1 3 1.63 5.81m-14.63-23.23a3.37 3.37 0 01-3.63-3.26v-2.18a3.37 3.37 0 013.63-3.27m23.9 0a3.36 3.36 0 013.63 3.27v2.18a3.36 3.36 0 01-3.63 3.26" stroke="#2D9CDB" stroke-width="2" stroke-linecap="round" stroke-linejoin="round"/><path d="M24.736 26.401h-3.63a1.46 1.46 0 01-1.45-1.4v0a1.46 1.46 0 011.45-1.45h3.63a1.45 1.45 0 011.45 1.45v0a1.45 1.45 0 01-1.45 1.4v0zm-5.8-1.4h-3.63a4.34 4.34 0 01-3.77-2.17 4.39 4.39 0 01-.54-2.23" stroke="#EE222A" stroke-width="2" stroke-linecap="round" stroke-linejoin="round"/></symbol><symbol id="message" viewBox="0 0 18 16"><path d="M13.426 5.638l-3.332 2.71c-.63.5-1.516.5-2.146 0l-3.36-2.71" stroke="#2D9CDB" stroke-width="1.5" stroke-linecap="round" stroke-linejoin="round"/><path fill-rule="evenodd" clip-rule="evenodd" d="M12.682 14.75c2.28.006 3.818-1.868 3.818-4.171V5.428c0-2.304-1.537-4.178-3.818-4.178H5.318C3.038 1.25 1.5 3.124 1.5 5.428v5.15c0 2.304 1.537 4.178 3.818 4.172h7.364z" stroke="#2D9CDB" stroke-width="1.5" stroke-linecap="round" stroke-linejoin="round"/></symbol><symbol id="mobile-menu" viewBox="0 0 30 30"><path stroke="#2D9CDB" stroke-width="1.5" stroke-linecap="round" d="M10.125 11.438h9.75m-9.75 3.75h6m-6 3.75h9.75"/><circle cx="15" cy="15" r="14.25" stroke="#2D9CDB" stroke-width="1.5"/></symbol><symbol id="ok" viewBox="0 0 24 24"><path xmlns="http://www.w3.org/2000/svg" d="M4.721 12.881c-.613 1.205.083 1.781 1.671 2.765 1.35.834 3.215 1.139 4.413 1.261l-4.721 4.541c-1.374 1.317.838 3.43 2.211 2.141l3.717-3.585c1.423 1.369 2.787 2.681 3.717 3.59 1.374 1.294 3.585-.801 2.226-2.141-.102-.097-5.037-4.831-4.736-4.541 1.213-.122 3.05-.445 4.384-1.261l-.001-.001c1.588-.989 2.284-1.564 1.68-2.769-.365-.684-1.349-1.256-2.659-.267 0 0-1.769 1.355-4.622 1.355-2.854 0-4.622-1.355-4.622-1.355-1.309-.994-2.297-.417-2.658.267z" data-original="#000000"/><path xmlns="http://www.w3.org/2000/svg" d="M11.999 12.142c3.478 0 6.318-2.718 6.318-6.064 0-3.36-2.84-6.078-6.318-6.078C8.52 0 5.68 2.718 5.68 6.078c0 3.346 2.84 6.064 6.319 6.064zm0-9.063c1.709 0 3.103 1.341 3.103 2.999 0 1.644-1.394 2.985-3.103 2.985S8.896 7.722 8.896 6.078c-.001-1.659 1.393-2.999 3.103-2.999z" data-original="#000000"/></symbol><symbol id="pen" viewBox="0 0 14 14"><path d="M8.37 12.589h4.57" stroke="#fff" stroke-width="1.5" stroke-linecap="round" stroke-linejoin="round"/><path fill-rule="evenodd" clip-rule="evenodd" d="M7.761 2.1a1.414 1.414 0 011.964-.19l1.092.848a1.35 1.35 0 01.453 1.88c-.021.035-6.008 7.524-6.008 7.524a1.07 1.07 0 01-.825.398l-2.293.03-.517-2.188c-.072-.307 0-.63.2-.878L7.76 2.1z" stroke="#fff" stroke-width="1.5" stroke-linecap="round" stroke-linejoin="round"/><path d="M6.653 3.49l3.435 2.638" stroke="#fff" stroke-width="1.5" stroke-linecap="round" stroke-linejoin="round"/></symbol><symbol id="person" viewBox="0 0 12 15"><path d="M1 12.278c0-1.69 1.212-3.128 2.86-3.394l.148-.024a12.484 12.484 0 013.984 0l.148.024C9.788 9.15 11 10.589 11 12.278c0 .73-.585 1.322-1.306 1.322H2.306A1.314 1.314 0 011 12.278zm7.917-8.522C8.917 5.278 7.61 6.513 6 6.513c-1.61 0-2.917-1.235-2.917-2.757S4.39 1 6 1c1.61 0 2.917 1.234 2.917 2.756z" stroke-width="1.5"/></symbol><symbol id="phone" viewBox="0 0 15 15"><path d="M9.026 1c2.405.273 4.304 2.209 4.574 4.663M9.026 3.35A2.906 2.906 0 0111.3 5.67" stroke-width="1.5" stroke-linecap="round" stroke-linejoin="round"/><path fill-rule="evenodd" clip-rule="evenodd" d="M6.868 7.613c2.592 2.645 3.18-.415 4.83 1.269 1.59 1.623 2.506 1.948.49 4.005-.253.207-1.857 2.699-7.495-3.054s-3.198-7.392-2.995-7.65c2.02-2.062 2.334-1.124 3.925.5 1.65 1.684-1.347 2.286 1.245 4.93z" stroke-width="1.5" stroke-linecap="round" stroke-linejoin="round"/></symbol><symbol id="point" viewBox="0 0 14 16"><path fill-rule="evenodd" clip-rule="evenodd" d="M1.18 6.793a5.759 5.759 0 1111.517.04v.065c-.04 2.067-1.194 3.978-2.609 5.472a15.14 15.14 0 01-2.693 2.217.698.698 0 01-.913 0 14.862 14.862 0 01-3.79-3.548A7.37 7.37 0 011.18 6.813v-.02z" stroke="#2D9CDB" stroke-width="1.5" stroke-linecap="round" stroke-linejoin="round"/><circle cx="6.938" cy="6.904" stroke="#2D9CDB" stroke-width="1.5" r="1.846"/></symbol><symbol id="quotes" viewBox="0 0 80 60"><path d="M12.732 36.48c.37 1.282.676 2.587 1.121 3.841 1.89 5.325 5.184 9.557 9.698 12.81 1.382.998 2.107 2.277 1.737 4.04-.587 2.793-3.465 3.34-5.184 2.413a36.618 36.618 0 01-7.385-5.306C6.607 48.644 2.705 41.698.882 33.512A38.813 38.813 0 01.09 22.633c.258-4.06.956-8.06 2.68-11.763C5.468 5.055 9.967 1.456 16.174.308c10.09-1.865 19.364 4.946 21.202 14.761 2.048 10.937-4.938 20.062-14.397 22.07a17.64 17.64 0 01-9.601-.657c-.14-.048-.283-.079-.425-.117l-.222.116zm42.255-.159c.267 1.034.46 1.94.73 2.82 1.742 5.625 4.946 10.174 9.613 13.646.909.68 1.84 1.345 2.185 2.57.68 2.417-1.157 4.835-3.6 4.631a4.305 4.305 0 01-1.758-.501c-10.1-5.848-16.447-14.562-19.04-26.141-.777-3.472-.993-7.013-.77-10.559.274-4.47 1.063-8.854 3.139-12.838C48.096 4.94 52.18 1.687 57.619.466 68.217-1.913 77.718 5.1 79.64 15.073c1.983 10.302-4.47 19.886-14.085 22.003-3.245.713-6.443.505-9.603-.496-.257-.084-.52-.14-.966-.259z" fill="#E1F5FA"/></symbol><symbol id="recall" viewBox="0 0 48 48"><path d="M9.099 28.253h26.967a2.835 2.835 0 002.835-2.835V4.836A2.835 2.835 0 0036.066 2H4.836A2.836 2.836 0 002 4.836v32.696l9.934-9.279" stroke="#2D9CDB" stroke-width="2" stroke-linecap="round" stroke-linejoin="round"/><path d="M43.164 17.645h.704A2.122 2.122 0 0146 19.747V46l-7.822-7.099H16.9a2.132 2.132 0 01-2.131-2.131v-4.254m25.55 6.385h-2.122" stroke="#2D9CDB" stroke-width="2" stroke-linecap="round" stroke-linejoin="round"/><path d="M14.604 22.64h10.12a2.552 2.552 0 002.474-1.955l1.604-6.394a2.11 2.11 0 000-.225.921.921 0 00-.92-.93h-6.169V7.623a.596.596 0 00-.606-.596.597.597 0 00-.548.362l-3.999 8.135h-4.33" stroke="#EE222A" stroke-width="2" stroke-linecap="round" stroke-linejoin="round"/></symbol><symbol id="red-cross" viewBox="0 0 100 100"><path d="M75 100H0V25A25 25 0 0125 0a25 25 0 0125 25v25h25a25 25 0 0125 25 25 25 0 01-25 25z" fill="#EE222A"/></symbol><symbol id="sale" viewBox="0 0 43 48"><path d="M12.648 4.731L6.322 17.482a2.309 2.309 0 00-.066 1.911L17.012 45.37a2.316 2.316 0 003.028 1.255l9.91-4.09 9.91-4.09a2.319 2.319 0 001.432-2.138c0-.304-.06-.605-.176-.886L30.37 9.444a2.317 2.317 0 00-1.397-1.308l-13.5-4.565a2.323 2.323 0 00-2.825 1.16v0z" stroke="#2D9CDB" stroke-width="2" stroke-linecap="round" stroke-linejoin="round"/><path d="M19.697 10.656a2.713 2.713 0 00-2.51-1.676 2.72 2.72 0 00-2.512 1.672 2.708 2.708 0 00.587 2.957 2.719 2.719 0 004.64-1.914c0-.357-.07-.71-.205-1.039v0z" stroke="#EE222A" stroke-width="2" stroke-linecap="round" stroke-linejoin="round"/><path d="M6.846 10.772l-4.461 4.702a2.132 2.132 0 00-.576 1.664l2.427 25.745A2.126 2.126 0 005.73 44.72c.267.082.549.11.827.085l6.51-.612" stroke="#2D9CDB" stroke-width="2" stroke-linecap="round" stroke-linejoin="round"/><path d="M16.77 10.38C13.908 5.658 6.55-.981 4.39 1.9 2.804 4.006 5.4 6.6 8.4 8.4" stroke="#EE222A" stroke-width="2" stroke-linecap="round" stroke-linejoin="round"/><path d="M21.517 19.8l3.235 2.834a.955.955 0 00.864.208l4.172-1.053a.959.959 0 011.18.783.954.954 0 01-.067.52L29.2 27.036a.951.951 0 00.069.888l2.287 3.636a.952.952 0 01-.898 1.458l-4.285-.395a.955.955 0 00-.822.34l-2.756 3.297a.958.958 0 01-1.667-.401l-.946-4.185a.955.955 0 00-.578-.676l-3.995-1.597a.955.955 0 01-.127-1.706l3.7-2.194a.959.959 0 00.466-.76l.286-4.286a.954.954 0 011.108-.88c.176.03.34.106.475.223v0z" stroke="#2D9CDB" stroke-width="2" stroke-linecap="round" stroke-linejoin="round"/></symbol><symbol id="scale" viewBox="0 0 49 48"><path d="M34.563 31.467l8.801 8.81a2.179 2.179 0 01-2.376 3.557 2.179 2.179 0 01-.707-.474l-8.81-8.8m-9.021.944c8.939-1.73 14.784-10.378 13.054-19.318-1.73-8.94-10.378-14.784-19.318-13.054C7.246 4.862 1.402 13.51 3.132 22.449c1.73 8.94 10.378 14.784 19.317 13.055z" stroke="#2D9CDB" stroke-width="2" stroke-linecap="round" stroke-linejoin="round"/><path d="M19.76 38.63a18.874 18.874 0 0018.874-18.874" stroke="#EE222A" stroke-width="2" stroke-linecap="round" stroke-linejoin="round"/><path stroke="#2D9CDB" stroke-width="2" stroke-linecap="round" stroke-linejoin="round" d="M20 13v14m7-7H13"/></symbol><symbol id="stamp" viewBox="0 0 48 48"><path d="M37.711 20.35v-5.508a1.95 1.95 0 00-.555-1.336l-8.96-8.95A1.853 1.853 0 0026.858 4H5.625A.624.624 0 005 4.624v28.909" stroke="#2D9CDB" stroke-width="2" stroke-linecap="round" stroke-linejoin="round"/><path d="M37.711 14.696h-8.775a1.258 1.258 0 01-1.258-1.258v-1.892m-4.436 8.804H44V43H28.907" stroke="#2D9CDB" stroke-width="2" stroke-linecap="round" stroke-linejoin="round"/><path d="M37.711 25.382l-11.33 6.298-3.139-1.803" stroke="#2D9CDB" stroke-width="2" stroke-linecap="round" stroke-linejoin="round"/><path d="M23.866 40.484v-1.257a1.88 1.88 0 00-1.881-1.892h-3.15a1.258 1.258 0 01-1.258-1.258v-.77a9.195 9.195 0 011.95-5.762 5.664 5.664 0 10-10.13-3.53 5.567 5.567 0 001.18 3.442 9.146 9.146 0 011.95 5.548v1.072a1.258 1.258 0 01-1.238 1.258h-3.15a1.892 1.892 0 00-1.881 1.892v1.258m12.577-3.15H16.32M6.882 43h16.36" stroke="#EE222A" stroke-width="2" stroke-linecap="round" stroke-linejoin="round"/></symbol><symbol id="star" viewBox="0 0 16 16"><path fill-rule="evenodd" clip-rule="evenodd" d="M8.828 2.133l1.37 2.738a.92.92 0 00.695.498l3.066.441c.758.11 1.059 1.028.51 1.554l-2.216 2.13a.903.903 0 00-.266.807l.523 3.007c.13.744-.663 1.312-1.34.96l-2.74-1.421a.936.936 0 00-.86 0l-2.74 1.421c-.677.352-1.47-.216-1.34-.96l.523-3.007a.902.902 0 00-.266-.807L1.53 7.364c-.548-.526-.247-1.444.511-1.554l3.066-.44c.3-.044.56-.23.695-.5l1.37-2.737c.339-.677 1.317-.677 1.656 0z" stroke="#9C2066" stroke-width="1.5" stroke-linecap="round" stroke-linejoin="round"/></symbol><symbol id="tg" viewBox="0 0 14 12"><path d="M13.074.098L.527 4.912c-.686.201-.664.886-.157 1.053l3.146.994 1.203 3.738c.146.408.262.563.515.566.253.004.363-.089.636-.338.319-.304.804-.781 1.574-1.538l3.27 2.448c.6.336 1.034.163 1.185-.566L13.949.99c.219-.89-.3-1.156-.875-.891zM4.01 6.73l7.146-4.544c.35-.24.462.027.303.211L5.528 7.805l-.304 2.699L4.01 6.73z" fill="#fff"/></symbol><symbol id="vk" viewBox="0 0 17 10"><path fill-rule="evenodd" clip-rule="evenodd" d="M8.319 9.955h1.016s.307-.034.463-.209c.145-.16.14-.457.14-.457s-.02-1.406.613-1.613c.633-.206 1.425 1.358 2.275 1.96.641.457 1.13.354 1.13.354l2.27-.033s1.187-.076.621-1.038c-.046-.078-.328-.711-1.686-2.012-1.42-1.36-1.233-1.141.482-3.496C16.686 1.973 17.107 1.1 16.976.723 16.85.368 16.083.46 16.083.46l-2.556.016a.565.565 0 00-.33.06.727.727 0 00-.226.283 15.46 15.46 0 01-.944 2.054c-1.139 1.992-1.598 2.097-1.775 1.974-.433-.29-.325-1.16-.325-1.776 0-1.931.284-2.736-.554-2.944-.282-.07-.486-.115-1.197-.125-.913-.009-1.686 0-2.121.224-.291.148-.516.476-.375.495.17.023.552.106.755.39.266.366.252 1.19.252 1.19s.147 2.274-.355 2.558c-.345.193-.818-.203-1.832-2.012A17.06 17.06 0 013.586.9a.781.781 0 00-.213-.293A1.032 1.032 0 002.98.443L.554.46S.189.47.056.634c-.12.146-.01.446-.01.446s1.907 4.585 4.055 6.895c1.975 2.12 4.218 1.98 4.218 1.98z" fill="#fff"/></symbol><symbol id="wa" viewBox="0 0 512 512"><path d="M256.064 0h-.128C114.784 0 0 114.816 0 256c0 56 18.048 107.904 48.736 150.048l-31.904 95.104 98.4-31.456C155.712 496.512 204 512 256.064 512 397.216 512 512 397.152 512 256S397.216 0 256.064 0zm148.96 361.504c-6.176 17.44-30.688 31.904-50.24 36.128-13.376 2.848-30.848 5.12-89.664-19.264-75.232-31.168-123.68-107.616-127.456-112.576-3.616-4.96-30.4-40.48-30.4-77.216s18.656-54.624 26.176-62.304c6.176-6.304 16.384-9.184 26.176-9.184 3.168 0 6.016.16 8.576.288 7.52.32 11.296.768 16.256 12.64 6.176 14.88 21.216 51.616 23.008 55.392 1.824 3.776 3.648 8.896 1.088 13.856-2.4 5.12-4.512 7.392-8.288 11.744-3.776 4.352-7.36 7.68-11.136 12.352-3.456 4.064-7.36 8.416-3.008 15.936 4.352 7.36 19.392 31.904 41.536 51.616 28.576 25.44 51.744 33.568 60.032 37.024 6.176 2.56 13.536 1.952 18.048-2.848 5.728-6.176 12.8-16.416 20-26.496 5.12-7.232 11.584-8.128 18.368-5.568 6.912 2.4 43.488 20.48 51.008 24.224 7.52 3.776 12.48 5.568 14.304 8.736 1.792 3.168 1.792 18.048-4.384 35.52z" data-original="#000000" xmlns="http://www.w3.org/2000/svg"/></symbol></svg>