<svg width="16" height="16" viewBox="0 0 16 16" fill="none" xmlns="http://www.w3.org/2000/svg">
<path fill-rule="evenodd" clip-rule="evenodd" d="M8.82819 2.13275L10.1988 4.87082C10.3331 5.13962 10.5923 5.32601 10.893 5.36914L13.959 5.81046C14.7165 5.91983 15.018 6.83791 14.4697 7.36396L12.2526 9.49433C12.0348 9.70382 11.9356 10.005 11.9871 10.3007L12.5103 13.3084C12.6392 14.0524 11.8473 14.62 11.1702 14.268L8.42991 12.847C8.16127 12.7076 7.83952 12.7076 7.57009 12.847L4.82975 14.268C4.15267 14.62 3.3608 14.0524 3.49043 13.3084L4.01288 10.3007C4.06443 10.005 3.96525 9.70382 3.74736 9.49433L1.53026 7.36396C0.982036 6.83791 1.28348 5.91983 2.041 5.81046L5.10699 5.36914C5.40765 5.32601 5.66771 5.13962 5.80203 4.87082L7.17181 2.13275C7.51074 1.45575 8.48926 1.45575 8.82819 2.13275Z" stroke="#9C2066" stroke-width="1.5" stroke-linecap="round" stroke-linejoin="round"/>
</svg>
